<svg width="91" height="89" viewBox="0 0 91 89" fill="none" xmlns="http://www.w3.org/2000/svg">
<g clip-path="url(#clip0_274_730)">
<path d="M81.1844 42.1031L69.4194 22.192C69.3702 22.1052 69.2989 22.033 69.2127 21.9828C69.1265 21.9326 69.0285 21.9061 68.9287 21.9061C68.829 21.9061 68.731 21.9326 68.6448 21.9828C68.5586 22.033 68.4872 22.1052 68.438 22.192L62.9334 31.4962L59.4968 27.0932C59.4432 27.0226 59.3738 26.9655 59.2941 26.9268C59.2144 26.888 59.1266 26.8685 59.038 26.87C58.9494 26.8715 58.8623 26.8938 58.7839 26.9352C58.7056 26.9766 58.638 27.0359 58.5868 27.1082L49.7001 39.2643L49.7151 39.2117L32.938 16.24C32.8806 16.1616 32.8059 16.0976 32.7196 16.053C32.6333 16.0084 32.5379 15.9844 32.4407 15.983C32.3436 15.9815 32.2475 16.0026 32.1599 16.0446C32.0723 16.0866 31.9957 16.1483 31.936 16.2249L28.1553 21.064L22.0979 10.8293C22.0424 10.7354 21.9633 10.6576 21.8686 10.6035C21.7738 10.5494 21.6665 10.521 21.5574 10.521C21.4483 10.521 21.3411 10.5494 21.2463 10.6035C21.1515 10.6576 21.0725 10.7354 21.0169 10.8293L9.06201 31.0675V49.6532H81.207L81.1844 42.1031Z" fill="#00664F"/>
<path opacity="0.75" d="M81.1844 42.1031L69.4194 22.192C69.3702 22.1052 69.2989 22.033 69.2127 21.9828C69.1265 21.9326 69.0285 21.9061 68.9287 21.9061C68.829 21.9061 68.731 21.9326 68.6448 21.9828C68.5586 22.033 68.4872 22.1052 68.438 22.192L62.9334 31.4962L59.4968 27.0932C59.4432 27.0226 59.3738 26.9655 59.2941 26.9268C59.2144 26.888 59.1266 26.8685 59.038 26.87C58.9494 26.8715 58.8623 26.8938 58.7839 26.9352C58.7056 26.9766 58.638 27.0359 58.5868 27.1082L49.7001 39.2643L49.7151 39.2117L32.938 16.24C32.8806 16.1616 32.8059 16.0976 32.7196 16.053C32.6333 16.0084 32.5379 15.9844 32.4407 15.983C32.3436 15.9815 32.2475 16.0026 32.1599 16.0446C32.0723 16.0866 31.9957 16.1483 31.936 16.2249L28.1553 21.064L22.0979 10.8293C22.0424 10.7354 21.9633 10.6576 21.8686 10.6035C21.7738 10.5494 21.6665 10.521 21.5574 10.521C21.4483 10.521 21.3411 10.5494 21.2463 10.6035C21.1515 10.6576 21.0725 10.7354 21.0169 10.8293L9.06201 31.0675V49.6532H81.207L81.1844 42.1031Z" fill="white"/>
<path opacity="0.7" d="M17.9825 18.7535C18.1253 18.8831 18.3131 18.9519 18.5058 18.9452C18.6985 18.9385 18.8811 18.8569 19.0146 18.7178L20.7818 16.881C20.8524 16.8076 20.9374 16.7495 21.0315 16.7104C21.1257 16.6714 21.2268 16.6522 21.3287 16.6542C21.4306 16.6561 21.531 16.6791 21.6235 16.7217C21.7161 16.7643 21.7988 16.8256 21.8666 16.9017L22.2689 17.3529C22.3365 17.4284 22.4189 17.4893 22.5109 17.5317C22.603 17.5741 22.7028 17.5972 22.8041 17.5995C22.9054 17.6018 23.0061 17.5832 23.1 17.545C23.1939 17.5068 23.2789 17.4498 23.3499 17.3774C23.4269 17.2989 23.5203 17.2386 23.6235 17.2008C23.7267 17.163 23.837 17.1486 23.9464 17.1587C24.0558 17.1688 24.1616 17.2031 24.2562 17.2591C24.3507 17.3151 24.4316 17.3915 24.4929 17.4826L24.7486 17.8586C24.8294 17.9785 24.9435 18.0722 25.0769 18.128C25.2102 18.1838 25.357 18.1994 25.4991 18.1729C25.6412 18.1463 25.7724 18.0787 25.8766 17.9784C25.9808 17.8781 26.0533 17.7496 26.0853 17.6086V17.5785L22.0978 10.8293C22.0423 10.7354 21.9632 10.6576 21.8684 10.6035C21.7737 10.5494 21.6664 10.521 21.5573 10.521C21.4482 10.521 21.341 10.5494 21.2462 10.6035C21.1514 10.6576 21.0723 10.7354 21.0168 10.8293L16.9109 17.7853L17.9825 18.7535Z" fill="white"/>
<path opacity="0.7" d="M29.5842 19.4582L30.59 19.0465C30.6947 19.0025 30.8116 18.9973 30.9198 19.0317C31.028 19.0662 31.1203 19.1381 31.1803 19.2345L31.3683 19.5259C31.4051 19.5867 31.455 19.6386 31.5144 19.6777C31.5738 19.7168 31.6412 19.7421 31.7116 19.7519C31.7821 19.7616 31.8538 19.7555 31.9216 19.7339C31.9894 19.7124 32.0515 19.676 32.1034 19.6274L32.3158 19.4394C32.368 19.3906 32.4305 19.3541 32.4986 19.3327C32.5667 19.3112 32.6388 19.3053 32.7095 19.3154C32.7803 19.3255 32.8478 19.3514 32.9072 19.391C32.9666 19.4307 33.0164 19.4832 33.0528 19.5447L33.4025 20.1293C33.4482 20.2058 33.5144 20.268 33.5936 20.3089C33.6727 20.3498 33.7617 20.3679 33.8505 20.361C33.9394 20.3542 34.0245 20.3227 34.0965 20.2702C34.1684 20.2176 34.2243 20.1461 34.2579 20.0635L34.3895 19.7402C34.4133 19.6807 34.4488 19.6267 34.494 19.5813C34.5391 19.5359 34.5929 19.5 34.6522 19.4758C34.7115 19.4516 34.775 19.4395 34.8391 19.4404C34.9031 19.4412 34.9663 19.455 35.0249 19.4807C35.1193 19.523 35.2251 19.5329 35.3257 19.5089L32.9419 16.2434C32.8845 16.165 32.8097 16.101 32.7235 16.0564C32.6372 16.0118 32.5417 15.9879 32.4446 15.9864C32.3475 15.9849 32.2513 16.006 32.1638 16.048C32.0762 16.09 31.9995 16.1517 31.9398 16.2283L29.3887 19.4977C29.4559 19.4981 29.5224 19.4846 29.5842 19.4582Z" fill="white"/>
<path opacity="0.7" d="M72.1773 29.3883C72.0474 29.5068 71.8764 29.5698 71.7008 29.5638C71.5251 29.5578 71.3588 29.4834 71.2373 29.3564L69.628 27.6869C69.5637 27.6202 69.4863 27.5674 69.4007 27.532C69.3151 27.4965 69.223 27.4791 69.1304 27.4809C69.0377 27.4826 68.9464 27.5035 68.8622 27.5422C68.778 27.5809 68.7027 27.6366 68.641 27.7057L68.2763 28.1156C68.2147 28.1841 68.1398 28.2394 68.0561 28.2779C67.9724 28.3164 67.8816 28.3373 67.7895 28.3394C67.6974 28.3415 67.6058 28.3248 67.5204 28.2901C67.4351 28.2555 67.3577 28.2038 67.293 28.1381C67.2234 28.0666 67.1386 28.0116 67.045 27.977C66.9514 27.9423 66.8512 27.9291 66.7518 27.9381C66.6523 27.9471 66.5562 27.9781 66.4703 28.029C66.3844 28.0799 66.3109 28.1493 66.2553 28.2321L66.0278 28.5837C65.9547 28.6928 65.8511 28.778 65.73 28.8289C65.6089 28.8797 65.4756 28.8939 65.3465 28.8697C65.2174 28.8455 65.0983 28.7839 65.0038 28.6926C64.9094 28.6014 64.8438 28.4844 64.8152 28.3562V28.3299L68.4379 22.1917C68.4871 22.1049 68.5585 22.0327 68.6447 21.9825C68.7309 21.9322 68.8289 21.9058 68.9286 21.9058C69.0284 21.9058 69.1264 21.9322 69.2126 21.9825C69.2988 22.0327 69.3701 22.1049 69.4193 22.1917L73.1511 28.5085L72.1773 29.3883Z" fill="white"/>
<path opacity="0.7" d="M61.6305 30.0296L60.7168 29.6536C60.6211 29.6144 60.5145 29.6107 60.4163 29.6431C60.3181 29.6755 60.2347 29.7419 60.181 29.8303L60.0175 30.0954C59.9838 30.1506 59.9382 30.1976 59.8841 30.233C59.83 30.2684 59.7687 30.2914 59.7047 30.3002C59.6406 30.309 59.5754 30.3035 59.5137 30.284C59.4521 30.2645 59.3955 30.2315 59.3482 30.1875L59.1602 29.9995C59.1124 29.9556 59.0555 29.9229 58.9935 29.9037C58.9316 29.8845 58.8661 29.8793 58.8019 29.8884C58.7377 29.8976 58.6763 29.9209 58.6222 29.9567C58.5681 29.9925 58.5226 30.0399 58.489 30.0954L58.16 30.6349C58.1186 30.7046 58.0586 30.7613 57.9867 30.7986C57.9148 30.8359 57.8339 30.8524 57.7531 30.8461C57.6723 30.8398 57.5949 30.8111 57.5296 30.7632C57.4643 30.7152 57.4137 30.65 57.3836 30.5748L57.2633 30.2815C57.2417 30.2274 57.2095 30.1783 57.1685 30.137C57.1275 30.0957 57.0786 30.0631 57.0247 30.0412C56.9708 30.0192 56.913 30.0084 56.8549 30.0093C56.7967 30.0102 56.7393 30.0229 56.6861 30.0465C56.5996 30.084 56.5034 30.0925 56.4116 30.0709L58.5793 27.1043C58.6304 27.0319 58.698 26.9726 58.7764 26.9312C58.8547 26.8898 58.9418 26.8675 59.0304 26.866C59.119 26.8646 59.2068 26.884 59.2865 26.9228C59.3662 26.9616 59.4356 27.0186 59.4892 27.0893L61.8091 30.0615C61.748 30.0628 61.6873 30.0519 61.6305 30.0296Z" fill="white"/>
<path opacity="0.1" d="M29.3491 21.0699L31.936 16.2251L28.1553 21.0699L31.2103 25.5499L29.3491 21.0699Z" fill="black"/>
<path opacity="0.1" d="M61.8487 31.4924L59.4968 27.0913L62.9335 31.4924L60.1567 35.5645L61.8487 31.4924Z" fill="black"/>
<path d="M44.9998 88.4131C69.0187 88.4131 88.4898 77.1713 88.4898 63.3039C88.4898 49.4364 69.0187 38.1946 44.9998 38.1946C20.9809 38.1946 1.50977 49.4364 1.50977 63.3039C1.50977 77.1713 20.9809 88.4131 44.9998 88.4131Z" fill="#00664F"/>
<path opacity="0.3" d="M44.9998 88.4131C69.0187 88.4131 88.4898 77.1713 88.4898 63.3039C88.4898 49.4364 69.0187 38.1946 44.9998 38.1946C20.9809 38.1946 1.50977 49.4364 1.50977 63.3039C1.50977 77.1713 20.9809 88.4131 44.9998 88.4131Z" fill="white"/>
<path d="M71.8557 33.7972C71.6282 33.7743 71.3988 33.816 71.194 33.9175C70.8092 34.1363 70.4471 34.3926 70.113 34.6827C69.7759 34.9733 69.358 35.1537 68.9154 35.1997C68.4736 35.2147 67.9961 34.9402 67.9171 34.5041C67.9115 34.4278 67.8918 34.3532 67.8588 34.2841C67.8156 34.2288 67.7554 34.1892 67.6874 34.1716C67.6194 34.1539 67.5475 34.1591 67.4828 34.1864C67.3542 34.2436 67.232 34.3142 67.1181 34.3969C66.6707 34.6601 66.1104 34.6 65.5972 34.5248C65.1704 34.4627 64.6309 34.2747 64.6328 33.8423C64.6328 33.5603 64.879 33.3535 65.0727 33.1486C65.2663 32.9437 65.4242 32.6147 65.2475 32.3966C65.1804 32.324 65.0945 32.2713 64.9994 32.2443C64.4654 32.0714 63.8112 32.3026 63.36 31.968C63.2009 31.8329 63.0913 31.6488 63.0484 31.4445C63.0055 31.2403 63.0318 31.0276 63.1231 30.84C63.2202 30.6549 63.3568 30.4933 63.5231 30.3666C63.6894 30.2399 63.8814 30.1512 64.0857 30.1068C64.4448 30.0147 64.8997 29.9733 65.0257 29.6274C65.1441 29.3247 64.9091 28.9976 64.6497 28.8115C64.3902 28.6253 64.065 28.4956 63.8789 28.2286C63.7875 28.0867 63.7369 27.9224 63.7326 27.7536C63.7283 27.5849 63.7704 27.4182 63.8544 27.2717C63.9407 27.127 64.0573 27.0026 64.1962 26.9072C64.3351 26.8118 64.493 26.7476 64.6591 26.719C64.8262 26.7064 64.9908 26.6703 65.1479 26.6118C65.2262 26.5807 65.2895 26.5205 65.3246 26.4438C65.3596 26.367 65.3637 26.2798 65.3359 26.2001C65.287 26.1118 65.1855 26.0666 65.1272 25.9839C65.0831 25.8966 65.0735 25.7959 65.1004 25.7018C65.1272 25.6078 65.1885 25.5273 65.272 25.4763C65.442 25.3795 65.6259 25.3091 65.8172 25.2676C66.2044 25.1379 66.5804 24.7619 66.4658 24.3709C66.3511 23.9798 65.789 23.8294 65.6235 23.4309C65.4769 23.0831 65.71 22.6789 66.0202 22.4683C66.3304 22.2578 66.7102 22.1694 67.0504 22.0096C67.3907 21.8498 67.7197 21.5641 67.746 21.1881C67.7724 20.8121 67.4866 20.4812 67.2516 20.1747C67.0166 19.8683 66.8173 19.4415 67.0222 19.1163C67.2272 18.7911 67.6577 18.7835 68.0111 18.6707C68.2263 18.6016 68.4244 18.4876 68.5922 18.3362C68.7601 18.1849 68.894 17.9997 68.985 17.7928C69.079 17.5766 69.1241 17.3378 69.2369 17.131C69.5866 16.4824 70.4683 16.191 71.1507 16.2794C71.5079 16.3207 71.6264 16.4674 71.7993 16.7212C71.9151 16.848 71.9972 17.0018 72.0381 17.1686C72.0888 17.4807 71.9253 17.8793 72.2261 18.1086C72.6754 18.4715 73.3541 17.9826 73.3372 18.7929C73.3376 19.1352 73.2862 19.4756 73.1849 19.8025C73.0627 20.1446 72.8183 20.2913 73.0232 20.6729C73.2864 21.1674 73.4575 21.1636 73.9858 21.1636C74.3618 21.1636 74.6851 21.1429 74.9652 21.4325C75.4578 21.9401 75.1645 22.4025 74.7284 22.7936C74.232 23.241 74.4952 23.4365 74.5592 24.0137C74.5911 24.2919 74.5272 24.3784 74.7754 24.5626C75.2472 24.9123 75.5086 24.7939 75.377 25.4782C75.2566 26.1024 75.4428 25.888 75.9842 26.1212C76.4636 26.328 76.7813 26.845 77.1686 27.1665C77.4186 27.3733 77.8003 27.5424 77.8228 27.8978C77.868 28.5953 77.0032 28.443 76.5914 28.6084C75.9184 28.881 76.1196 29.7627 76.6441 30.0917C77.2081 30.4414 78.0108 30.5711 78.056 31.3682C78.0898 31.9811 77.742 32.1202 77.2682 32.3195C76.8922 32.4831 76.9374 32.532 76.9374 32.9832C76.9374 33.895 76.6309 34.1544 75.7323 34.0059C75.486 33.9645 75.11 33.8592 74.8637 33.9345C74.5197 34.0378 74.6362 34.1224 74.6268 34.4101C74.6024 35.1452 73.7451 34.9384 73.3823 34.6225C72.9499 34.2747 72.4235 33.848 71.8557 33.7972Z" fill="#00664F"/>
<path opacity="0.15" d="M71.8557 33.7972C71.6282 33.7743 71.3988 33.816 71.194 33.9175C70.8092 34.1363 70.4471 34.3926 70.113 34.6827C69.7759 34.9733 69.358 35.1537 68.9154 35.1997C68.4736 35.2147 67.9961 34.9402 67.9171 34.5041C67.9115 34.4278 67.8918 34.3532 67.8588 34.2841C67.8156 34.2288 67.7554 34.1892 67.6874 34.1716C67.6194 34.1539 67.5475 34.1591 67.4828 34.1864C67.3542 34.2436 67.232 34.3142 67.1181 34.3969C66.6707 34.6601 66.1104 34.6 65.5972 34.5248C65.1704 34.4627 64.6309 34.2747 64.6328 33.8423C64.6328 33.5603 64.879 33.3535 65.0727 33.1486C65.2663 32.9437 65.4242 32.6147 65.2475 32.3966C65.1804 32.324 65.0945 32.2713 64.9994 32.2443C64.4654 32.0714 63.8112 32.3026 63.36 31.968C63.2009 31.8329 63.0913 31.6488 63.0484 31.4445C63.0055 31.2403 63.0318 31.0276 63.1231 30.84C63.2202 30.6549 63.3568 30.4933 63.5231 30.3666C63.6894 30.2399 63.8814 30.1512 64.0857 30.1068C64.4448 30.0147 64.8997 29.9733 65.0257 29.6274C65.1441 29.3247 64.9091 28.9976 64.6497 28.8115C64.3902 28.6253 64.065 28.4956 63.8789 28.2286C63.7875 28.0867 63.7369 27.9224 63.7326 27.7536C63.7283 27.5849 63.7704 27.4182 63.8544 27.2717C63.9407 27.127 64.0573 27.0026 64.1962 26.9072C64.3351 26.8118 64.493 26.7476 64.6591 26.719C64.8262 26.7064 64.9908 26.6703 65.1479 26.6118C65.2262 26.5807 65.2895 26.5205 65.3246 26.4438C65.3596 26.367 65.3637 26.2798 65.3359 26.2001C65.287 26.1118 65.1855 26.0666 65.1272 25.9839C65.0831 25.8966 65.0735 25.7959 65.1004 25.7018C65.1272 25.6078 65.1885 25.5273 65.272 25.4763C65.442 25.3795 65.6259 25.3091 65.8172 25.2676C66.2044 25.1379 66.5804 24.7619 66.4658 24.3709C66.3511 23.9798 65.789 23.8294 65.6235 23.4309C65.4769 23.0831 65.71 22.6789 66.0202 22.4683C66.3304 22.2578 66.7102 22.1694 67.0504 22.0096C67.3907 21.8498 67.7197 21.5641 67.746 21.1881C67.7724 20.8121 67.4866 20.4812 67.2516 20.1747C67.0166 19.8683 66.8173 19.4415 67.0222 19.1163C67.2272 18.7911 67.6577 18.7835 68.0111 18.6707C68.2263 18.6016 68.4244 18.4876 68.5922 18.3362C68.7601 18.1849 68.894 17.9997 68.985 17.7928C69.079 17.5766 69.1241 17.3378 69.2369 17.131C69.5866 16.4824 70.4683 16.191 71.1507 16.2794C71.5079 16.3207 71.6264 16.4674 71.7993 16.7212C71.9151 16.848 71.9972 17.0018 72.0381 17.1686C72.0888 17.4807 71.9253 17.8793 72.2261 18.1086C72.6754 18.4715 73.3541 17.9826 73.3372 18.7929C73.3376 19.1352 73.2862 19.4756 73.1849 19.8025C73.0627 20.1446 72.8183 20.2913 73.0232 20.6729C73.2864 21.1674 73.4575 21.1636 73.9858 21.1636C74.3618 21.1636 74.6851 21.1429 74.9652 21.4325C75.4578 21.9401 75.1645 22.4025 74.7284 22.7936C74.232 23.241 74.4952 23.4365 74.5592 24.0137C74.5911 24.2919 74.5272 24.3784 74.7754 24.5626C75.2472 24.9123 75.5086 24.7939 75.377 25.4782C75.2566 26.1024 75.4428 25.888 75.9842 26.1212C76.4636 26.328 76.7813 26.845 77.1686 27.1665C77.4186 27.3733 77.8003 27.5424 77.8228 27.8978C77.868 28.5953 77.0032 28.443 76.5914 28.6084C75.9184 28.881 76.1196 29.7627 76.6441 30.0917C77.2081 30.4414 78.0108 30.5711 78.056 31.3682C78.0898 31.9811 77.742 32.1202 77.2682 32.3195C76.8922 32.4831 76.9374 32.532 76.9374 32.9832C76.9374 33.895 76.6309 34.1544 75.7323 34.0059C75.486 33.9645 75.11 33.8592 74.8637 33.9345C74.5197 34.0378 74.6362 34.1224 74.6268 34.4101C74.6024 35.1452 73.7451 34.9384 73.3823 34.6225C72.9499 34.2747 72.4235 33.848 71.8557 33.7972Z" fill="black"/>
<path opacity="0.15" d="M64.9997 32.2442C64.5898 32.1107 64.1085 32.216 63.7043 32.122C63.9429 32.0649 64.1855 32.0265 64.43 32.0073C64.7203 31.9948 65.0099 32.0436 65.2801 32.1505C65.5502 32.2573 65.7948 32.42 65.9979 32.6277C65.7826 32.8926 65.6704 33.2265 65.6821 33.5677C66.7011 33.8441 67.7031 32.4773 68.6751 32.8928C68.6149 33.3854 68.6751 34.049 69.1526 34.1562C69.4346 34.2201 69.7166 34.0321 69.8933 33.8008C70.07 33.5696 70.1753 33.2932 70.352 33.0639C70.5985 32.7669 70.9463 32.5717 71.3282 32.5162C71.7102 32.4606 72.0992 32.5486 72.42 32.7631C72.6437 32.9248 73.1288 33.2895 73.3845 33.0094C73.4766 32.9078 73.4521 32.7725 73.4916 32.6522C73.5297 32.5677 73.5797 32.4892 73.6401 32.419C73.7623 32.231 73.6834 32.0581 73.4521 31.9697C73.2404 31.9249 73.0264 31.8917 72.8111 31.8701C72.7001 31.8457 72.5961 31.7965 72.5069 31.7262C72.4177 31.6558 72.3456 31.5662 72.2959 31.464C72.2482 31.3605 72.2323 31.2452 72.2504 31.1327C72.2685 31.0202 72.3197 30.9156 72.3975 30.8323C72.4783 30.7515 72.5855 30.7007 72.6682 30.6236C72.7136 30.5885 72.7467 30.54 72.7629 30.485C72.7791 30.43 72.7775 30.3713 72.7584 30.3172C72.7277 30.2667 72.6843 30.2252 72.6325 30.1969C72.2677 29.9462 71.9087 29.6874 71.5552 29.4204C71.3541 29.2682 71.1397 29.0858 71.1059 28.8358C71.093 28.6571 71.1488 28.4802 71.2619 28.3413C71.5571 27.9428 72.1098 27.7247 72.2433 27.2453C72.2649 27.0704 72.3052 26.8983 72.3636 26.732C72.4877 26.497 72.7791 26.4181 73.0404 26.3692C73.132 26.3654 73.2218 26.342 73.3035 26.3004C73.3852 26.2589 73.4571 26.2003 73.5142 26.1286C73.5622 26.0332 73.5736 25.9235 73.5461 25.8202C73.4503 25.3596 72.9615 25.0795 72.7941 24.6377C72.7364 24.4461 72.7261 24.2433 72.7641 24.0468C72.802 23.8503 72.8872 23.666 73.0122 23.5097C73.4066 23.0084 73.9179 22.6115 74.5012 22.3535C74.7387 22.2713 74.9673 22.1655 75.1836 22.0377L75.2062 22.0208C75.1912 22.3065 74.9787 22.5697 74.7136 22.8085C74.2173 23.2559 74.4805 23.4514 74.5444 24.0286C74.5764 24.3068 74.5125 24.3933 74.7606 24.5776C75.2325 24.9272 75.4938 24.8088 75.3622 25.4931C75.2419 26.1173 75.428 25.903 75.9695 26.1361C76.4489 26.3429 76.7666 26.8599 77.1539 27.1814C77.4039 27.3882 77.7856 27.5574 77.8081 27.9127C77.8532 28.6102 76.9884 28.4579 76.5767 28.6233C75.9037 28.8959 76.1048 29.7776 76.6293 30.1066C77.1933 30.4563 77.9961 30.586 78.0412 31.3832C78.0751 31.996 77.7273 32.1352 77.2535 32.3344C76.8775 32.498 76.9226 32.5469 76.9226 32.9981C76.9226 33.9099 76.6162 34.1693 75.7176 34.0208C75.4713 33.9794 75.0953 33.8742 74.849 33.9494C74.5049 34.0528 74.6215 34.1374 74.6121 34.425C74.5877 35.1601 73.7304 34.9533 73.3676 34.6374C72.9502 34.2746 72.4276 33.8535 71.8636 33.7971C71.636 33.7742 71.4067 33.8159 71.2018 33.9174C70.8171 34.1361 70.455 34.3924 70.1208 34.6826C69.7838 34.9731 69.3658 35.1536 68.9232 35.1996C68.4814 35.2146 68.0039 34.9401 67.9249 34.504C67.9194 34.4276 67.8996 34.353 67.8667 34.284C67.8234 34.2287 67.7632 34.1891 67.6952 34.1714C67.6273 34.1538 67.5554 34.159 67.4907 34.1862C67.3621 34.2435 67.2398 34.3141 67.1259 34.3968C66.6785 34.66 66.1183 34.5998 65.605 34.5246C65.1783 34.4626 64.6387 34.2746 64.6406 33.8422C64.6406 33.5602 64.8869 33.3534 65.0805 33.1485C65.2741 32.9436 65.4321 32.6146 65.2553 32.3965C65.1861 32.3227 65.0975 32.2699 64.9997 32.2442Z" fill="black"/>
<path d="M73.2583 26.2867L70.8049 31.1522V28.9131L70.5549 19.3721L70.192 28.9131V30.4171L67.4961 25.702L70.192 31.4906V46.4854C70.1945 46.5123 70.2042 46.538 70.2201 46.5598C70.236 46.5817 70.2575 46.5988 70.2823 46.6095C70.3492 46.6438 70.4233 46.6617 70.4985 46.6617C70.5736 46.6617 70.6478 46.6438 70.7147 46.6095C70.7394 46.5988 70.7609 46.5817 70.7768 46.5598C70.7927 46.538 70.8024 46.5123 70.8049 46.4854V32.3854L73.2583 26.2867Z" fill="#37474F"/>
<path d="M73.1492 47.0532C71.9498 47.2412 70.8744 46.914 70.6902 45.615C70.5398 44.5474 70.5398 43.464 70.6902 42.3964C70.7428 42.011 70.8782 41.556 71.2542 41.4564C71.5625 41.3737 71.8878 41.6012 72.0269 41.8907C72.1416 42.1899 72.1866 42.5114 72.1585 42.8307C72.3465 42.4096 72.6304 41.9226 73.0985 41.9132C73.5252 41.9132 73.8505 42.3513 73.8618 42.778C73.873 43.2048 73.6738 43.6052 73.4707 43.9812C73.7941 43.938 74.1607 43.9154 74.4107 44.1279C74.7059 44.3836 74.672 44.8799 74.4446 45.1938C74.2171 45.5078 73.8542 45.6939 73.5046 45.8669C73.5602 45.8436 73.6201 45.8324 73.6804 45.8341C73.7406 45.8358 73.7998 45.8503 73.8541 45.8766C73.9083 45.9029 73.9563 45.9404 73.9949 45.9867C74.0335 46.033 74.0618 46.087 74.078 46.1451C74.1019 46.2652 74.0915 46.3895 74.048 46.5039C74.0044 46.6183 73.9294 46.7181 73.8317 46.7918C73.6311 46.9373 73.3957 47.0274 73.1492 47.0532Z" fill="#455A64"/>
<path d="M71.0681 47.572L68.1993 45.9157C67.9563 45.761 67.7446 45.562 67.5751 45.3292C67.3968 45.1121 67.2765 44.8534 67.2254 44.5772C67.2 44.4827 67.2107 44.3821 67.2555 44.2952C67.3589 44.1429 67.6052 44.1955 67.7405 44.3196C67.8759 44.4437 67.9868 44.5508 68.1316 44.6956C68.075 44.3667 68.0567 44.0323 68.0771 43.6992C68.0733 43.6387 68.082 43.5781 68.1027 43.5212C68.1234 43.4643 68.1556 43.4122 68.1974 43.3683C68.2582 43.332 68.3281 43.3136 68.399 43.3153C68.4698 43.3169 68.5387 43.3386 68.5978 43.3777C68.9738 43.5808 69.1336 44.0263 69.2633 44.4343C69.1978 44.0132 69.2105 43.5836 69.3009 43.1672C69.4006 42.716 69.9195 42.5392 70.0962 42.9792C70.1817 43.2111 70.233 43.4543 70.2485 43.7011C70.2785 44.0203 70.2563 44.3422 70.1827 44.6542C70.3566 44.2493 70.6179 43.8879 70.9478 43.5958C71.001 43.533 71.07 43.4855 71.1477 43.4584C71.2254 43.4313 71.3089 43.4255 71.3896 43.4416C71.5776 43.5112 71.6021 43.7518 71.5776 43.9455C71.5357 44.3548 71.402 44.7493 71.1866 45.0998C71.4788 44.9055 71.8098 44.7772 72.1567 44.7238C72.2114 44.7081 72.2696 44.709 72.3238 44.7264C72.378 44.7438 72.4258 44.7769 72.4612 44.8216C72.4874 44.8877 72.495 44.9597 72.4835 45.0299C72.4719 45.1001 72.4414 45.1659 72.3954 45.2201C72.1936 45.5127 71.9297 45.7572 71.6227 45.9364C71.9269 45.8439 72.246 45.8107 72.5627 45.8386C72.6099 45.8366 72.6569 45.845 72.7004 45.8632C72.744 45.8814 72.783 45.909 72.8147 45.9439C72.8955 46.0624 72.7996 46.224 72.6962 46.3199C72.4923 46.484 72.2663 46.6188 72.0251 46.7204C72.1663 46.7137 72.3074 46.7374 72.4387 46.7899C72.5017 46.8198 72.5538 46.8687 72.5875 46.9297C72.6213 46.9908 72.635 47.0609 72.6267 47.1302C72.6026 47.1965 72.5623 47.2557 72.5094 47.3023C72.4565 47.3489 72.3927 47.3816 72.324 47.3972C71.7788 47.5927 71.6227 47.6566 71.0681 47.572Z" fill="#00664F"/>
<path opacity="0.25" d="M71.0681 47.572L68.1993 45.9157C67.9563 45.761 67.7446 45.562 67.5751 45.3292C67.3968 45.1121 67.2765 44.8534 67.2254 44.5772C67.2 44.4827 67.2107 44.3821 67.2555 44.2952C67.3589 44.1429 67.6052 44.1955 67.7405 44.3196C67.8759 44.4437 67.9868 44.5508 68.1316 44.6956C68.075 44.3667 68.0567 44.0323 68.0771 43.6992C68.0733 43.6387 68.082 43.5781 68.1027 43.5212C68.1234 43.4643 68.1556 43.4122 68.1974 43.3683C68.2582 43.332 68.3281 43.3136 68.399 43.3153C68.4698 43.3169 68.5387 43.3386 68.5978 43.3777C68.9738 43.5808 69.1336 44.0263 69.2633 44.4343C69.1978 44.0132 69.2105 43.5836 69.3009 43.1672C69.4006 42.716 69.9195 42.5392 70.0962 42.9792C70.1817 43.2111 70.233 43.4543 70.2485 43.7011C70.2785 44.0203 70.2563 44.3422 70.1827 44.6542C70.3566 44.2493 70.6179 43.8879 70.9478 43.5958C71.001 43.533 71.07 43.4855 71.1477 43.4584C71.2254 43.4313 71.3089 43.4255 71.3896 43.4416C71.5776 43.5112 71.6021 43.7518 71.5776 43.9455C71.5357 44.3548 71.402 44.7493 71.1866 45.0998C71.4788 44.9055 71.8098 44.7772 72.1567 44.7238C72.2114 44.7081 72.2696 44.709 72.3238 44.7264C72.378 44.7438 72.4258 44.7769 72.4612 44.8216C72.4874 44.8877 72.495 44.9597 72.4835 45.0299C72.4719 45.1001 72.4414 45.1659 72.3954 45.2201C72.1936 45.5127 71.9297 45.7572 71.6227 45.9364C71.9269 45.8439 72.246 45.8107 72.5627 45.8386C72.6099 45.8366 72.6569 45.845 72.7004 45.8632C72.744 45.8814 72.783 45.909 72.8147 45.9439C72.8955 46.0624 72.7996 46.224 72.6962 46.3199C72.4923 46.484 72.2663 46.6188 72.0251 46.7204C72.1663 46.7137 72.3074 46.7374 72.4387 46.7899C72.5017 46.8198 72.5538 46.8687 72.5875 46.9297C72.6213 46.9908 72.635 47.0609 72.6267 47.1302C72.6026 47.1965 72.5623 47.2557 72.5094 47.3023C72.4565 47.3489 72.3927 47.3816 72.324 47.3972C71.7788 47.5927 71.6227 47.6566 71.0681 47.572Z" fill="black"/>
<path d="M82.788 31.5713C82.5146 31.5438 82.239 31.594 81.9928 31.7161C81.5153 31.9454 81.1205 32.312 80.6975 32.6316C80.2745 32.9512 79.7913 33.2351 79.2611 33.252C78.731 33.269 78.1595 32.94 78.0636 32.4192C78.0567 32.3276 78.0338 32.2379 77.9959 32.1541C77.9447 32.0864 77.872 32.038 77.7897 32.0168C77.7074 31.9956 77.6204 32.0029 77.5428 32.0376C77.3887 32.1053 77.2424 32.1898 77.1067 32.2895C76.5709 32.6053 75.8997 32.5339 75.2831 32.4436C74.7717 32.3703 74.125 32.1428 74.1269 31.6258C74.1269 31.2874 74.422 31.0374 74.6551 30.793C74.8883 30.5486 75.0763 30.1538 74.8638 29.8925C74.7849 29.8026 74.6818 29.7374 74.5668 29.7045C73.9257 29.4958 73.1417 29.774 72.6003 29.3736C72.409 29.2114 72.2773 28.99 72.2259 28.7445C72.1744 28.4991 72.2063 28.2435 72.3164 28.0181C72.4336 27.7966 72.5975 27.6032 72.7968 27.4513C72.9961 27.2993 73.2261 27.1925 73.4707 27.1383C73.9013 27.0292 74.4483 26.9785 74.6081 26.5649C74.7491 26.202 74.4671 25.8129 74.1475 25.5854C73.8279 25.3579 73.4463 25.2094 73.2245 24.886C73.1153 24.7162 73.0546 24.5198 73.049 24.318C73.0433 24.1162 73.093 23.9167 73.1925 23.7411C73.334 23.5192 73.5277 23.3353 73.7565 23.2053C73.9445 23.085 74.1532 23.0812 74.3374 22.9666C74.4198 22.9215 74.487 22.8529 74.5302 22.7695C74.5734 22.6861 74.5907 22.5917 74.5799 22.4984C74.5443 22.3956 74.5022 22.2952 74.454 22.1976C74.424 22.0835 74.427 21.9633 74.4626 21.8508C74.4982 21.7384 74.565 21.6383 74.6551 21.5622C74.838 21.4119 75.0538 21.3069 75.2849 21.2558C75.5199 21.19 75.864 21.1542 76.067 21.0132C76.1774 20.9257 76.2602 20.8082 76.3055 20.6749C76.3509 20.5415 76.3568 20.3979 76.3227 20.2612C76.1798 19.7724 75.5124 19.6145 75.315 19.1445C75.1383 18.729 75.4165 18.244 75.7888 17.9902C76.161 17.7364 76.616 17.633 77.0239 17.4394C77.4319 17.2457 77.8267 16.9073 77.8587 16.4561C77.8906 16.0049 77.5466 15.6082 77.2646 15.2416C76.9826 14.875 76.7438 14.3618 76.9901 13.9708C77.2364 13.5797 77.7515 13.5741 78.1764 13.4387C78.4341 13.3553 78.6713 13.2183 78.8725 13.0369C79.0737 12.8555 79.2343 12.6337 79.3439 12.3859C79.4567 12.1265 79.5112 11.8407 79.6447 11.5926C80.0658 10.8161 81.1223 10.4758 81.9383 10.5717C82.3669 10.6225 82.5023 10.786 82.7185 11.1C82.8369 11.288 82.961 11.382 83.0042 11.6377C83.0644 12.0137 82.867 12.4893 83.2204 12.7657C83.7581 13.2 84.5797 12.6153 84.5515 13.5872C84.5483 13.9978 84.485 14.4057 84.3635 14.798C84.2168 15.2059 83.9235 15.3826 84.1661 15.8395C84.4819 16.4336 84.6887 16.4298 85.3204 16.4279C85.7791 16.4279 86.1607 16.4035 86.4973 16.7494C87.0876 17.3604 86.736 17.9131 86.2115 18.3831C85.6155 18.9189 85.9333 19.152 86.0103 19.8458C86.0461 20.1785 85.9709 20.2819 86.2698 20.5038C86.8338 20.9211 87.1477 20.7801 86.9898 21.6017C86.8451 22.3537 87.0688 22.0924 87.7174 22.3725C88.2927 22.6188 88.6724 23.2392 89.1387 23.6264C89.4376 23.8746 89.8907 24.0664 89.9226 24.5025C89.9771 25.3372 88.9394 25.1549 88.4449 25.3542C87.6384 25.6794 87.8809 26.736 88.5089 27.1326C89.1744 27.5519 90.1463 27.6966 90.2009 28.663C90.2422 29.3962 89.8249 29.5578 89.2609 29.8041C88.8059 29.9921 88.8642 30.056 88.8642 30.5994C88.8642 31.6916 88.4976 32.0018 87.4185 31.8232C87.1233 31.7744 86.6665 31.6503 86.3788 31.7386C85.9671 31.8627 86.1062 31.9642 86.0949 32.3026C86.0649 33.1862 85.0384 32.9362 84.6022 32.5583C84.104 32.1447 83.4686 31.639 82.788 31.5713Z" fill="#00664F"/>
<path opacity="0.1" d="M82.788 31.5713C82.5146 31.5438 82.239 31.594 81.9928 31.7161C81.5153 31.9454 81.1205 32.312 80.6975 32.6316C80.2745 32.9512 79.7913 33.2351 79.2611 33.252C78.731 33.269 78.1595 32.94 78.0636 32.4192C78.0567 32.3276 78.0338 32.2379 77.9959 32.1541C77.9447 32.0864 77.872 32.038 77.7897 32.0168C77.7074 31.9956 77.6204 32.0029 77.5428 32.0376C77.3887 32.1053 77.2424 32.1898 77.1067 32.2895C76.5709 32.6053 75.8997 32.5339 75.2831 32.4436C74.7717 32.3703 74.125 32.1428 74.1269 31.6258C74.1269 31.2874 74.422 31.0374 74.6551 30.793C74.8883 30.5486 75.0763 30.1538 74.8638 29.8925C74.7849 29.8026 74.6818 29.7374 74.5668 29.7045C73.9257 29.4958 73.1417 29.774 72.6003 29.3736C72.409 29.2114 72.2773 28.99 72.2259 28.7445C72.1744 28.4991 72.2063 28.2435 72.3164 28.0181C72.4336 27.7966 72.5975 27.6032 72.7968 27.4513C72.9961 27.2993 73.2261 27.1925 73.4707 27.1383C73.9013 27.0292 74.4483 26.9785 74.6081 26.5649C74.7491 26.202 74.4671 25.8129 74.1475 25.5854C73.8279 25.3579 73.4463 25.2094 73.2245 24.886C73.1153 24.7162 73.0546 24.5198 73.049 24.318C73.0433 24.1162 73.093 23.9167 73.1925 23.7411C73.334 23.5192 73.5277 23.3353 73.7565 23.2053C73.9445 23.085 74.1532 23.0812 74.3374 22.9666C74.4198 22.9215 74.487 22.8529 74.5302 22.7695C74.5734 22.6861 74.5907 22.5917 74.5799 22.4984C74.5443 22.3956 74.5022 22.2952 74.454 22.1976C74.424 22.0835 74.427 21.9633 74.4626 21.8508C74.4982 21.7384 74.565 21.6383 74.6551 21.5622C74.838 21.4119 75.0538 21.3069 75.2849 21.2558C75.5199 21.19 75.864 21.1542 76.067 21.0132C76.1774 20.9257 76.2602 20.8082 76.3055 20.6749C76.3509 20.5415 76.3568 20.3979 76.3227 20.2612C76.1798 19.7724 75.5124 19.6145 75.315 19.1445C75.1383 18.729 75.4165 18.244 75.7888 17.9902C76.161 17.7364 76.616 17.633 77.0239 17.4394C77.4319 17.2457 77.8267 16.9073 77.8587 16.4561C77.8906 16.0049 77.5466 15.6082 77.2646 15.2416C76.9826 14.875 76.7438 14.3618 76.9901 13.9708C77.2364 13.5797 77.7515 13.5741 78.1764 13.4387C78.4341 13.3553 78.6713 13.2183 78.8725 13.0369C79.0737 12.8555 79.2343 12.6337 79.3439 12.3859C79.4567 12.1265 79.5112 11.8407 79.6447 11.5926C80.0658 10.8161 81.1223 10.4758 81.9383 10.5717C82.3669 10.6225 82.5023 10.786 82.7185 11.1C82.8369 11.288 82.961 11.382 83.0042 11.6377C83.0644 12.0137 82.867 12.4893 83.2204 12.7657C83.7581 13.2 84.5797 12.6153 84.5515 13.5872C84.5483 13.9978 84.485 14.4057 84.3635 14.798C84.2168 15.2059 83.9235 15.3826 84.1661 15.8395C84.4819 16.4336 84.6887 16.4298 85.3204 16.4279C85.7791 16.4279 86.1607 16.4035 86.4973 16.7494C87.0876 17.3604 86.736 17.9131 86.2115 18.3831C85.6155 18.9189 85.9333 19.152 86.0103 19.8458C86.0461 20.1785 85.9709 20.2819 86.2698 20.5038C86.8338 20.9211 87.1477 20.7801 86.9898 21.6017C86.8451 22.3537 87.0688 22.0924 87.7174 22.3725C88.2927 22.6188 88.6724 23.2392 89.1387 23.6264C89.4376 23.8746 89.8907 24.0664 89.9226 24.5025C89.9771 25.3372 88.9394 25.1549 88.4449 25.3542C87.6384 25.6794 87.8809 26.736 88.5089 27.1326C89.1744 27.5519 90.1463 27.6966 90.2009 28.663C90.2422 29.3962 89.8249 29.5578 89.2609 29.8041C88.8059 29.9921 88.8642 30.056 88.8642 30.5994C88.8642 31.6916 88.4976 32.0018 87.4185 31.8232C87.1233 31.7744 86.6665 31.6503 86.3788 31.7386C85.9671 31.8627 86.1062 31.9642 86.0949 32.3026C86.0649 33.1862 85.0384 32.9362 84.6022 32.5583C84.104 32.1447 83.4686 31.639 82.788 31.5713Z" fill="white"/>
<path opacity="0.15" d="M74.5685 29.7117C74.0778 29.5519 73.5007 29.6779 73.0156 29.5632C73.302 29.4959 73.5929 29.4501 73.8861 29.426C74.2348 29.4109 74.5828 29.4702 74.9069 29.5998C75.231 29.7295 75.5239 29.9265 75.7661 30.178C75.5084 30.4961 75.3748 30.8969 75.3901 31.306C76.6121 31.6387 77.8134 30.0012 78.9771 30.4976C78.9075 31.0898 78.9771 31.8831 79.5505 32.0147C79.8889 32.0899 80.2273 31.8643 80.4379 31.588C80.6484 31.3116 80.7763 30.9788 80.9887 30.7044C81.2838 30.3464 81.7016 30.1111 82.1607 30.0443C82.6199 29.9776 83.0874 30.0842 83.4722 30.3434C83.7861 30.5709 84.1809 30.9168 84.4968 30.6893C84.8126 30.4618 84.6284 29.7794 85.0025 29.5933C85.2507 29.4692 85.5985 29.6647 85.8071 29.4824C85.884 29.3975 85.9331 29.2913 85.9481 29.1778C86.0967 28.5536 86.2264 27.8317 85.8335 27.3241C85.4838 26.8729 84.7431 26.5966 84.822 26.0307C84.8916 25.5475 85.5045 25.4009 85.9895 25.3445C86.4745 25.2881 87.0874 25.0587 87.063 24.5718C87.0385 24.0849 86.3918 23.863 86.2959 23.3949C86.2546 23.1938 86.3241 22.97 86.232 22.7877C86.0929 22.5132 85.7 22.5019 85.4687 22.297C85.0533 21.9304 85.3748 21.2442 85.2582 20.7028C85.1755 20.3268 84.8653 20.0203 84.7619 19.6424C84.5569 18.8904 85.2432 18.1685 85.9632 17.8621C86.248 17.7652 86.522 17.6392 86.781 17.4861L86.8073 17.4673C86.7904 17.8076 86.5366 18.1253 86.217 18.4073C85.621 18.9431 85.9388 19.1762 86.0158 19.8699C86.0515 20.2027 85.9763 20.3061 86.2753 20.5279C86.8393 20.9453 87.1532 20.8043 86.9953 21.6258C86.8505 22.3778 87.0743 22.1165 87.7229 22.3966C88.2981 22.6429 88.6779 23.2633 89.1441 23.6506C89.4431 23.8988 89.8962 24.0905 89.9281 24.5267C89.9826 25.3614 88.9449 25.179 88.4504 25.3783C87.6439 25.7036 87.8864 26.7601 88.5143 27.1568C89.1799 27.576 90.1518 27.7208 90.2063 28.6871C90.2477 29.4203 89.8303 29.582 89.2663 29.8283C88.8114 30.0163 88.8697 30.0802 88.8697 30.6235C88.8697 31.7158 88.5031 32.026 87.4239 31.8474C87.1288 31.7985 86.6719 31.6744 86.3843 31.7628C85.9726 31.8869 86.1117 31.9884 86.1004 32.3268C86.0703 33.2104 85.0439 32.9604 84.6077 32.5825C84.1076 32.1482 83.4797 31.6425 82.7973 31.5748C82.5238 31.5473 82.2482 31.5975 82.002 31.7196C81.5245 31.9489 81.1297 32.3155 80.7067 32.6351C80.2837 32.9547 79.8005 33.2386 79.2704 33.2555C78.7402 33.2724 78.1687 32.9434 78.0728 32.4227C78.0659 32.3311 78.043 32.2413 78.0051 32.1576C77.9539 32.0898 77.8812 32.0414 77.7989 32.0203C77.7167 31.9991 77.6296 32.0064 77.5521 32.041C77.3979 32.1088 77.2516 32.1933 77.1159 32.293C76.5801 32.6088 75.9089 32.5374 75.2923 32.4471C74.7809 32.3738 74.1342 32.1463 74.1361 31.6293C74.1361 31.2909 74.4313 31.0409 74.6644 30.7965C74.8975 30.5521 75.0855 30.1573 74.8731 29.896C74.7916 29.8063 74.6858 29.7423 74.5685 29.7117Z" fill="black"/>
<path d="M84.4799 22.5679L81.5283 28.3959V25.7151L81.2294 14.2847L80.7951 25.7151V27.5199L77.5615 21.8686L80.7951 28.8058V52.4938C80.7985 52.526 80.8102 52.5567 80.829 52.583C80.8477 52.6094 80.873 52.6305 80.9023 52.6442C80.9827 52.685 81.0716 52.7062 81.1617 52.7062C81.2519 52.7062 81.3408 52.685 81.4212 52.6442C81.4505 52.6305 81.4757 52.6094 81.4945 52.583C81.5133 52.5567 81.5249 52.526 81.5283 52.4938V29.8868L84.4799 22.5679Z" fill="#455A64"/>
<path d="M84.0176 53.0034C82.8163 53.1914 81.7409 52.8643 81.5585 51.5652C81.4072 50.4977 81.4072 49.4142 81.5585 48.3466C81.6131 47.9612 81.7465 47.5063 82.1225 47.4066C82.4327 47.3258 82.758 47.5533 82.8952 47.8409C83.0108 48.14 83.0559 48.4616 83.0268 48.7809C83.2148 48.3598 83.4987 47.8729 83.9668 47.8635C84.3936 47.8541 84.7188 48.3015 84.7301 48.7283C84.7414 49.155 84.5421 49.5555 84.3409 49.9315C84.6624 49.8882 85.029 49.8657 85.2809 50.0781C85.5761 50.3338 85.5423 50.8301 85.3167 51.1441C85.0911 51.458 84.7245 51.6442 84.3767 51.8171C84.4317 51.7951 84.4908 51.785 84.5501 51.7873C84.6093 51.7896 84.6675 51.8044 84.7206 51.8306C84.7738 51.8569 84.8209 51.894 84.8588 51.9396C84.8967 51.9852 84.9246 52.0383 84.9407 52.0954C84.9651 52.2152 84.9551 52.3396 84.9118 52.454C84.8686 52.5684 84.7938 52.6683 84.6963 52.7421C84.4967 52.887 84.2628 52.9771 84.0176 53.0034Z" fill="#37474F"/>
<path d="M81.9344 53.5166L79.0655 51.8603C78.8232 51.7055 78.6121 51.5065 78.4432 51.2737C78.2634 51.0576 78.1429 50.7985 78.0935 50.5217C78.0664 50.4274 78.0772 50.3262 78.1236 50.2397C78.227 50.0875 78.4714 50.1401 78.6087 50.2642C78.7449 50.3859 78.8748 50.5145 78.9978 50.6496C78.9413 50.3207 78.923 49.9863 78.9433 49.6532C78.9399 49.5928 78.9489 49.5323 78.9696 49.4754C78.9902 49.4185 79.0222 49.3664 79.0636 49.3223C79.1236 49.2846 79.193 49.2646 79.2638 49.2646C79.3347 49.2646 79.4041 49.2846 79.4641 49.3223C79.8401 49.5253 79.9999 49.9709 80.1296 50.3789C80.0637 49.9577 80.0771 49.528 80.1691 49.1117C80.2668 48.6605 80.7857 48.4838 80.9624 48.9237C81.0477 49.1558 81.099 49.3989 81.1147 49.6457C81.1455 49.9647 81.1239 50.2867 81.0508 50.5988C81.2247 50.1939 81.486 49.8325 81.8159 49.5404C81.8688 49.4777 81.9375 49.4304 82.0149 49.4033C82.0922 49.3761 82.1755 49.3703 82.2559 49.3862C82.4439 49.4558 82.4683 49.6964 82.4439 49.8901C82.4028 50.2995 82.269 50.6942 82.0528 51.0444C82.345 50.8501 82.6761 50.7218 83.0229 50.6684C83.0776 50.6524 83.1359 50.6532 83.1901 50.6707C83.2444 50.6881 83.2922 50.7213 83.3275 50.7661C83.3536 50.8323 83.3613 50.9043 83.3497 50.9745C83.3381 51.0447 83.3077 51.1104 83.2617 51.1647C83.0605 51.4572 82.7973 51.7018 82.4909 51.881C82.795 51.7883 83.1142 51.7551 83.4309 51.7832C83.478 51.7815 83.5249 51.79 83.5684 51.8081C83.6119 51.8263 83.6509 51.8537 83.6828 51.8885C83.7636 52.0069 83.6696 52.1686 83.5643 52.2645C83.3604 52.4286 83.1345 52.5634 82.8932 52.6649C83.0344 52.6583 83.1755 52.682 83.3068 52.7345C83.372 52.7624 83.4264 52.8106 83.4619 52.8719C83.4975 52.9332 83.5123 53.0044 83.5042 53.0748C83.4807 53.1414 83.4406 53.2009 83.3876 53.2477C83.3346 53.2944 83.2706 53.3268 83.2015 53.3417C82.6469 53.5429 82.4909 53.6068 81.9344 53.5166Z" fill="#00664F"/>
<path opacity="0.25" d="M81.9344 53.5166L79.0655 51.8603C78.8232 51.7055 78.6121 51.5065 78.4432 51.2737C78.2634 51.0576 78.1429 50.7985 78.0935 50.5217C78.0664 50.4274 78.0772 50.3262 78.1236 50.2397C78.227 50.0875 78.4714 50.1401 78.6087 50.2642C78.7449 50.3859 78.8748 50.5145 78.9978 50.6496C78.9413 50.3207 78.923 49.9863 78.9433 49.6532C78.9399 49.5928 78.9489 49.5323 78.9696 49.4754C78.9902 49.4185 79.0222 49.3664 79.0636 49.3223C79.1236 49.2846 79.193 49.2646 79.2638 49.2646C79.3347 49.2646 79.4041 49.2846 79.4641 49.3223C79.8401 49.5253 79.9999 49.9709 80.1296 50.3789C80.0637 49.9577 80.0771 49.528 80.1691 49.1117C80.2668 48.6605 80.7857 48.4838 80.9624 48.9237C81.0477 49.1558 81.099 49.3989 81.1147 49.6457C81.1455 49.9647 81.1239 50.2867 81.0508 50.5988C81.2247 50.1939 81.486 49.8325 81.8159 49.5404C81.8688 49.4777 81.9375 49.4304 82.0149 49.4033C82.0922 49.3761 82.1755 49.3703 82.2559 49.3862C82.4439 49.4558 82.4683 49.6964 82.4439 49.8901C82.4028 50.2995 82.269 50.6942 82.0528 51.0444C82.345 50.8501 82.6761 50.7218 83.0229 50.6684C83.0776 50.6524 83.1359 50.6532 83.1901 50.6707C83.2444 50.6881 83.2922 50.7213 83.3275 50.7661C83.3536 50.8323 83.3613 50.9043 83.3497 50.9745C83.3381 51.0447 83.3077 51.1104 83.2617 51.1647C83.0605 51.4572 82.7973 51.7018 82.4909 51.881C82.795 51.7883 83.1142 51.7551 83.4309 51.7832C83.478 51.7815 83.5249 51.79 83.5684 51.8081C83.6119 51.8263 83.6509 51.8537 83.6828 51.8885C83.7636 52.0069 83.6696 52.1686 83.5643 52.2645C83.3604 52.4286 83.1345 52.5634 82.8932 52.6649C83.0344 52.6583 83.1755 52.682 83.3068 52.7345C83.372 52.7624 83.4264 52.8106 83.4619 52.8719C83.4975 52.9332 83.5123 53.0044 83.5042 53.0748C83.4807 53.1414 83.4406 53.2009 83.3876 53.2477C83.3346 53.2944 83.2706 53.3268 83.2015 53.3417C82.6469 53.5429 82.4909 53.6068 81.9344 53.5166Z" fill="black"/>
<path d="M7.52416 30.6724C7.79741 30.6442 8.07306 30.6938 8.3194 30.8153C8.79504 31.0465 9.19172 31.4131 9.61472 31.7327C10.0377 32.0523 10.5209 32.3343 11.051 32.3531C11.5812 32.372 12.1527 32.0411 12.2486 31.5203C12.2545 31.4279 12.2775 31.3374 12.3163 31.2533C12.3686 31.1876 12.441 31.1406 12.5224 31.1196C12.6038 31.0986 12.6898 31.1046 12.7675 31.1368C12.9209 31.206 13.067 31.2904 13.2036 31.3887C13.7413 31.7064 14.4125 31.6331 15.0291 31.5447C15.5405 31.4695 16.1872 31.2439 16.1853 30.7251C16.1853 30.3885 15.8883 30.1385 15.657 29.8941C15.4258 29.6497 15.2359 29.2549 15.4484 28.9917C15.5269 28.9014 15.6302 28.836 15.7454 28.8037C16.3846 28.595 17.1686 28.8733 17.71 28.4709C17.9013 28.3087 18.033 28.0874 18.0844 27.8419C18.1359 27.5964 18.104 27.3408 17.9939 27.1155C17.8772 26.8936 17.7135 26.6998 17.5141 26.5478C17.3147 26.3959 17.0845 26.2893 16.8396 26.2356C16.4109 26.1266 15.8638 26.0758 15.7116 25.6622C15.5706 25.2994 15.8526 24.9102 16.1703 24.6846C16.488 24.459 16.8734 24.3086 17.0952 23.9853C17.2045 23.8151 17.2651 23.6182 17.2704 23.4161C17.2757 23.2139 17.2255 23.0141 17.1253 22.8385C17.0197 22.6668 16.8782 22.52 16.7104 22.4084C16.5426 22.2967 16.3525 22.2228 16.1534 22.1917C15.9527 22.1765 15.7552 22.1328 15.5668 22.062C15.3788 21.9718 15.2528 21.7443 15.3506 21.5695C15.4089 21.4642 15.5386 21.4097 15.6006 21.31C15.736 21.122 15.6194 20.8381 15.4277 20.7009C15.2237 20.5845 15.003 20.5002 14.7734 20.4509C14.3091 20.2948 13.8579 19.8455 13.997 19.3755C14.1361 18.9055 14.8073 18.7269 15.0047 18.2588C15.1795 17.8414 14.9013 17.3583 14.529 17.1026C14.1568 16.8469 13.7037 16.7397 13.2958 16.5517C12.8878 16.3637 12.493 16.0178 12.4592 15.5685C12.4253 15.1192 12.7712 14.7187 13.0532 14.3521C13.3352 13.9855 13.5759 13.4742 13.3296 13.0831C13.0833 12.6921 12.5663 12.6846 12.1433 12.5511C11.8841 12.4674 11.6457 12.3296 11.4438 12.1468C11.2419 11.964 11.0811 11.7404 10.9721 11.4908C10.8593 11.2313 10.8048 10.9475 10.6694 10.6974C10.2502 9.92099 9.1936 9.58259 8.3758 9.67847C7.94904 9.72735 7.8118 9.89091 7.59748 10.2067C7.47716 10.3947 7.35308 10.4869 7.31172 10.7425C7.24968 11.1185 7.44708 11.5942 7.09364 11.8799C6.55784 12.3161 5.7344 11.7295 5.76448 12.7015C5.76639 13.1122 5.82975 13.5203 5.95248 13.9122C6.09912 14.3221 6.3924 14.4988 6.14048 14.9556C5.82464 15.5478 5.61972 15.5441 4.98616 15.5441C4.52932 15.5441 4.14768 15.5177 3.81116 15.8655C3.22084 16.4747 3.5724 17.0274 4.09504 17.4993C4.691 18.0332 4.37516 18.2682 4.29808 18.9619C4.26048 19.2947 4.33756 19.3981 4.03864 19.618C3.47464 20.0373 3.1588 19.8963 3.3186 20.7159C3.46336 21.4679 3.23964 21.2085 2.59104 21.4867C2.01576 21.7349 1.636 22.3534 1.16976 22.7407C0.870843 22.9889 0.417762 23.1806 0.385802 23.6168C0.331282 24.4515 1.36904 24.2691 1.86348 24.4684C2.67 24.7955 2.42748 25.8521 1.79956 26.2469C1.13216 26.6662 0.160202 26.8222 0.107562 27.7772C0.0662025 28.5104 0.483562 28.674 1.04756 28.9184C1.50252 29.1064 1.44424 29.1722 1.44424 29.7136C1.44424 30.8078 1.81084 31.1161 2.88808 30.9394C3.18324 30.8905 3.64008 30.7646 3.92772 30.8529C4.34132 30.977 4.2022 31.0785 4.21348 31.4169C4.24356 32.2986 5.27004 32.0505 5.7062 31.6726C6.2138 31.2439 6.83608 30.7382 7.52416 30.6724Z" fill="#00664F"/>
<path opacity="0.1" d="M7.52416 30.6724C7.79741 30.6442 8.07306 30.6938 8.3194 30.8153C8.79504 31.0465 9.19172 31.4131 9.61472 31.7327C10.0377 32.0523 10.5209 32.3343 11.051 32.3531C11.5812 32.372 12.1527 32.0411 12.2486 31.5203C12.2545 31.4279 12.2775 31.3374 12.3163 31.2533C12.3686 31.1876 12.441 31.1406 12.5224 31.1196C12.6038 31.0986 12.6898 31.1046 12.7675 31.1368C12.9209 31.206 13.067 31.2904 13.2036 31.3887C13.7413 31.7064 14.4125 31.6331 15.0291 31.5447C15.5405 31.4695 16.1872 31.2439 16.1853 30.7251C16.1853 30.3885 15.8883 30.1385 15.657 29.8941C15.4258 29.6497 15.2359 29.2549 15.4484 28.9917C15.5269 28.9014 15.6302 28.836 15.7454 28.8037C16.3846 28.595 17.1686 28.8733 17.71 28.4709C17.9013 28.3087 18.033 28.0874 18.0844 27.8419C18.1359 27.5964 18.104 27.3408 17.9939 27.1155C17.8772 26.8936 17.7135 26.6998 17.5141 26.5478C17.3147 26.3959 17.0845 26.2893 16.8396 26.2356C16.4109 26.1266 15.8638 26.0758 15.7116 25.6622C15.5706 25.2994 15.8526 24.9102 16.1703 24.6846C16.488 24.459 16.8734 24.3086 17.0952 23.9853C17.2045 23.8151 17.2651 23.6182 17.2704 23.4161C17.2757 23.2139 17.2255 23.0141 17.1253 22.8385C17.0197 22.6668 16.8782 22.52 16.7104 22.4084C16.5426 22.2967 16.3525 22.2228 16.1534 22.1917C15.9527 22.1765 15.7552 22.1328 15.5668 22.062C15.3788 21.9718 15.2528 21.7443 15.3506 21.5695C15.4089 21.4642 15.5386 21.4097 15.6006 21.31C15.736 21.122 15.6194 20.8381 15.4277 20.7009C15.2237 20.5845 15.003 20.5002 14.7734 20.4509C14.3091 20.2948 13.8579 19.8455 13.997 19.3755C14.1361 18.9055 14.8073 18.7269 15.0047 18.2588C15.1795 17.8414 14.9013 17.3583 14.529 17.1026C14.1568 16.8469 13.7037 16.7397 13.2958 16.5517C12.8878 16.3637 12.493 16.0178 12.4592 15.5685C12.4253 15.1192 12.7712 14.7187 13.0532 14.3521C13.3352 13.9855 13.5759 13.4742 13.3296 13.0831C13.0833 12.6921 12.5663 12.6846 12.1433 12.5511C11.8841 12.4674 11.6457 12.3296 11.4438 12.1468C11.2419 11.964 11.0811 11.7404 10.9721 11.4908C10.8593 11.2313 10.8048 10.9475 10.6694 10.6974C10.2502 9.92099 9.1936 9.58259 8.3758 9.67847C7.94904 9.72735 7.8118 9.89091 7.59748 10.2067C7.47716 10.3947 7.35308 10.4869 7.31172 10.7425C7.24968 11.1185 7.44708 11.5942 7.09364 11.8799C6.55784 12.3161 5.7344 11.7295 5.76448 12.7015C5.76639 13.1122 5.82975 13.5203 5.95248 13.9122C6.09912 14.3221 6.3924 14.4988 6.14048 14.9556C5.82464 15.5478 5.61972 15.5441 4.98616 15.5441C4.52932 15.5441 4.14768 15.5177 3.81116 15.8655C3.22084 16.4747 3.5724 17.0274 4.09504 17.4993C4.691 18.0332 4.37516 18.2682 4.29808 18.9619C4.26048 19.2947 4.33756 19.3981 4.03864 19.618C3.47464 20.0373 3.1588 19.8963 3.3186 20.7159C3.46336 21.4679 3.23964 21.2085 2.59104 21.4867C2.01576 21.7349 1.636 22.3534 1.16976 22.7407C0.870843 22.9889 0.417762 23.1806 0.385802 23.6168C0.331282 24.4515 1.36904 24.2691 1.86348 24.4684C2.67 24.7955 2.42748 25.8521 1.79956 26.2469C1.13216 26.6662 0.160202 26.8222 0.107562 27.7772C0.0662025 28.5104 0.483562 28.674 1.04756 28.9184C1.50252 29.1064 1.44424 29.1722 1.44424 29.7136C1.44424 30.8078 1.81084 31.1161 2.88808 30.9394C3.18324 30.8905 3.64008 30.7646 3.92772 30.8529C4.34132 30.977 4.2022 31.0785 4.21348 31.4169C4.24356 32.2986 5.27004 32.0505 5.7062 31.6726C6.2138 31.2439 6.83608 30.7382 7.52416 30.6724Z" fill="white"/>
<path opacity="0.15" d="M15.7456 28.8114C16.2363 28.6498 16.8134 28.7757 17.2985 28.6629C17.0123 28.5947 16.7213 28.5489 16.428 28.5257C16.0793 28.5109 15.7314 28.5702 15.4073 28.6999C15.0832 28.8295 14.7904 29.0264 14.548 29.2777C14.8057 29.5958 14.9393 29.9966 14.924 30.4057C13.7039 30.7366 12.5007 29.0897 11.3389 29.5973C11.4084 30.1876 11.3389 30.9828 10.7749 31.1126C10.4365 31.1878 10.0962 30.9622 9.88752 30.6858C9.67884 30.4094 9.54912 30.0786 9.33668 29.8022C9.04134 29.4445 8.62355 29.2095 8.16454 29.1428C7.70554 29.0761 7.23813 29.1825 6.8532 29.4412C6.53924 29.6687 6.14444 30.0165 5.8286 29.7872C5.51276 29.5578 5.697 28.8772 5.32288 28.6911C5.07472 28.567 4.72504 28.7644 4.51824 28.5802C4.44074 28.4956 4.39089 28.3893 4.37536 28.2756C4.22872 27.6515 4.099 26.9296 4.49192 26.4238C4.8416 25.9726 5.58232 25.6944 5.50148 25.1285C5.4338 24.6454 4.81904 24.5006 4.33588 24.4442C3.85272 24.3878 3.23796 24.1584 3.26052 23.6715C3.28308 23.1846 3.93356 22.9628 4.02944 22.4928C4.06892 22.2916 4.00124 22.0698 4.09336 21.8855C4.2306 21.611 4.6254 21.5998 4.85664 21.3967C5.27024 21.0301 4.94876 20.3439 5.0672 19.8025C5.14992 19.4265 5.46012 19.12 5.56164 18.7422C5.76844 17.9902 5.08036 17.2682 4.3622 16.9599C4.0771 16.8623 3.8025 16.7363 3.54252 16.5839L3.51808 16.5632C3.535 16.9054 3.7888 17.2212 4.10652 17.5032C4.70248 18.0372 4.38664 18.2722 4.30956 18.9659C4.27196 19.2986 4.34904 19.402 4.05012 19.622C3.48612 20.0412 3.17028 19.9002 3.33008 20.7199C3.47484 21.4719 3.25112 21.2125 2.60252 21.4907C2.02724 21.7389 1.64748 22.3574 1.18124 22.7447C0.882317 22.9928 0.429237 23.1846 0.397277 23.6208C0.342757 24.4555 1.38052 24.2731 1.87496 24.4724C2.68148 24.7995 2.43896 25.8561 1.81104 26.2509C1.14364 26.6701 0.171677 26.8262 0.119037 27.7812C0.0776771 28.5144 0.495037 28.678 1.05904 28.9224C1.514 29.1104 1.45572 29.1762 1.45572 29.7176C1.45572 30.8118 1.82232 31.1201 2.89956 30.9434C3.19472 30.8945 3.65156 30.7685 3.9392 30.8569C4.3528 30.981 4.21368 31.0825 4.22496 31.4209C4.25504 32.3026 5.28152 32.0544 5.71768 31.6766C6.21776 31.2404 6.84568 30.7366 7.52812 30.6689C7.80136 30.6407 8.07701 30.6902 8.32336 30.8118C8.799 31.043 9.19568 31.4096 9.61868 31.7292C10.0417 32.0488 10.5248 32.3308 11.055 32.3496C11.5852 32.3684 12.1567 32.0375 12.2526 31.5168C12.2585 31.4244 12.2814 31.3339 12.3202 31.2498C12.3726 31.184 12.4449 31.1371 12.5263 31.1161C12.6077 31.095 12.6938 31.1011 12.7714 31.1332C12.9249 31.2025 13.071 31.2868 13.2076 31.3852C13.7453 31.7029 14.4164 31.6296 15.0331 31.5412C15.5444 31.466 16.1912 31.2404 16.1893 30.7215C16.1893 30.385 15.8922 30.135 15.661 29.8906C15.4298 29.6462 15.2399 29.2514 15.4523 28.9882C15.5313 28.9026 15.633 28.8413 15.7456 28.8114Z" fill="black"/>
<path d="M5.84326 21.6674L8.78546 27.4954V24.8239L9.0919 13.386L9.51866 24.8239V26.6287L12.7523 20.9774L9.51866 27.9146V51.6026C9.51494 51.6345 9.50315 51.6648 9.48439 51.6908C9.46563 51.7168 9.44054 51.7376 9.4115 51.7511C9.33133 51.7927 9.24235 51.8144 9.15206 51.8144C9.06177 51.8144 8.97279 51.7927 8.89262 51.7511C8.86358 51.7376 8.83849 51.7168 8.81973 51.6908C8.80098 51.6648 8.78918 51.6345 8.78546 51.6026V28.9881L5.84326 21.6674Z" fill="#455A64"/>
<path d="M6.29637 52.1047C7.49581 52.2927 8.57117 51.9637 8.75541 50.6665C8.90581 49.5989 8.90581 48.5155 8.75541 47.4479C8.70089 47.0606 8.56741 46.6057 8.19141 46.5079C7.88121 46.4252 7.55597 46.6527 7.41685 46.9422C7.30258 47.2416 7.25821 47.5631 7.28713 47.8822C7.09913 47.4611 6.81337 46.976 6.34713 46.9647C5.92037 46.9647 5.59513 47.4047 5.58385 47.8314C5.57257 48.2582 5.77185 48.6567 5.97301 49.0346C5.64965 48.9895 5.28305 48.9669 5.03301 49.1813C4.73973 49.4351 4.77169 49.9333 4.99917 50.2453C5.22665 50.5574 5.59137 50.7473 5.93917 50.9184C5.88394 50.8967 5.82479 50.8869 5.76553 50.8895C5.70626 50.8921 5.6482 50.907 5.59507 50.9334C5.54194 50.9598 5.49492 50.997 5.45705 51.0427C5.41918 51.0883 5.39128 51.1414 5.37517 51.1985C5.35069 51.3181 5.36066 51.4422 5.40393 51.5563C5.44719 51.6705 5.52197 51.77 5.61957 51.8433C5.81864 51.9878 6.0519 52.0778 6.29637 52.1047Z" fill="#37474F"/>
<path d="M8.37978 52.616L11.2487 50.9559C11.4914 50.8017 11.7026 50.6026 11.8709 50.3694C12.0468 50.1594 12.1671 49.9086 12.2206 49.6399C12.2478 49.5456 12.237 49.4444 12.1905 49.3579C12.0871 49.2057 11.8427 49.2583 11.7055 49.3805C11.5683 49.5027 11.4592 49.6117 11.3145 49.7678C11.3717 49.4389 11.3906 49.1046 11.3709 48.7714C11.3743 48.711 11.3655 48.6504 11.3448 48.5936C11.3241 48.5367 11.292 48.4846 11.2505 48.4405C11.1904 48.4024 11.1206 48.3822 11.0494 48.3822C10.9782 48.3822 10.9084 48.4024 10.8482 48.4405C10.4722 48.6435 10.3124 49.091 10.1846 49.4989C10.2505 49.0778 10.2371 48.648 10.1451 48.2318C10.0455 47.7787 9.52658 47.602 9.35174 48.0344C9.26535 48.2661 9.21402 48.5095 9.19946 48.7563C9.16877 49.0754 9.19036 49.3974 9.26338 49.7095C9.08949 49.304 8.82822 48.942 8.49822 48.6492C8.44511 48.5868 8.3764 48.5397 8.29911 48.5126C8.22181 48.4855 8.13871 48.4795 8.0583 48.495C7.8703 48.5646 7.84586 48.8071 7.8703 49.0007C7.91135 49.4099 8.04439 49.8045 8.25946 50.1551C7.96779 49.9597 7.63651 49.8313 7.28938 49.7791C7.23442 49.7643 7.17637 49.7659 7.12229 49.7836C7.06821 49.8013 7.02045 49.8343 6.98482 49.8787C6.95889 49.9447 6.95148 50.0166 6.96341 50.0865C6.97534 50.1564 7.00615 50.2217 7.0525 50.2754C7.25357 50.5685 7.51674 50.8137 7.8233 50.9935C7.51908 50.9012 7.20012 50.8674 6.8833 50.8939C6.83619 50.8921 6.78926 50.9007 6.74576 50.9188C6.70226 50.937 6.66323 50.9644 6.63138 50.9992C6.54866 51.1195 6.64454 51.2793 6.74982 51.3752C6.95311 51.5393 7.17839 51.6741 7.4191 51.7756C7.27776 51.7674 7.13637 51.7911 7.0055 51.8452C6.9407 51.8736 6.88663 51.9218 6.85113 51.983C6.81564 52.0442 6.80056 52.1151 6.8081 52.1855C6.8314 52.2527 6.87112 52.313 6.92365 52.3609C6.97619 52.4088 7.03986 52.4429 7.1089 52.4599C7.66726 52.6479 7.8233 52.7081 8.37978 52.616Z" fill="#00664F"/>
<path opacity="0.25" d="M8.37978 52.616L11.2487 50.9559C11.4914 50.8017 11.7026 50.6026 11.8709 50.3694C12.0468 50.1594 12.1671 49.9086 12.2206 49.6399C12.2478 49.5456 12.237 49.4444 12.1905 49.3579C12.0871 49.2057 11.8427 49.2583 11.7055 49.3805C11.5683 49.5027 11.4592 49.6117 11.3145 49.7678C11.3717 49.4389 11.3906 49.1046 11.3709 48.7714C11.3743 48.711 11.3655 48.6504 11.3448 48.5936C11.3241 48.5367 11.292 48.4846 11.2505 48.4405C11.1904 48.4024 11.1206 48.3822 11.0494 48.3822C10.9782 48.3822 10.9084 48.4024 10.8482 48.4405C10.4722 48.6435 10.3124 49.091 10.1846 49.4989C10.2505 49.0778 10.2371 48.648 10.1451 48.2318C10.0455 47.7787 9.52658 47.602 9.35174 48.0344C9.26535 48.2661 9.21402 48.5095 9.19946 48.7563C9.16877 49.0754 9.19036 49.3974 9.26338 49.7095C9.08949 49.304 8.82822 48.942 8.49822 48.6492C8.44511 48.5868 8.3764 48.5397 8.29911 48.5126C8.22181 48.4855 8.13871 48.4795 8.0583 48.495C7.8703 48.5646 7.84586 48.8071 7.8703 49.0007C7.91135 49.4099 8.04439 49.8045 8.25946 50.1551C7.96779 49.9597 7.63651 49.8313 7.28938 49.7791C7.23442 49.7643 7.17637 49.7659 7.12229 49.7836C7.06821 49.8013 7.02045 49.8343 6.98482 49.8787C6.95889 49.9447 6.95148 50.0166 6.96341 50.0865C6.97534 50.1564 7.00615 50.2217 7.0525 50.2754C7.25357 50.5685 7.51674 50.8137 7.8233 50.9935C7.51908 50.9012 7.20012 50.8674 6.8833 50.8939C6.83619 50.8921 6.78926 50.9007 6.74576 50.9188C6.70226 50.937 6.66323 50.9644 6.63138 50.9992C6.54866 51.1195 6.64454 51.2793 6.74982 51.3752C6.95311 51.5393 7.17839 51.6741 7.4191 51.7756C7.27776 51.7674 7.13637 51.7911 7.0055 51.8452C6.9407 51.8736 6.88663 51.9218 6.85113 51.983C6.81564 52.0442 6.80056 52.1151 6.8081 52.1855C6.8314 52.2527 6.87112 52.313 6.92365 52.3609C6.97619 52.4088 7.03986 52.4429 7.1089 52.4599C7.66726 52.6479 7.8233 52.7081 8.37978 52.616Z" fill="black"/>
<path opacity="0.15" d="M78.088 71.5103L80.1767 73.0744L71.9216 80.4403L59.1169 81.4949L46.2239 79.3273L34.7333 81.8766L26.8053 74.6668L11.8499 73.0744L4.08179 64.4753L13.1622 59.5779C13.1622 59.5779 41.1742 57.5099 41.2118 57.6058C41.2494 57.7017 58.4044 65.6785 58.4044 65.6785L73.6004 68.3481L78.088 71.5103Z" fill="black"/>
<path d="M15.5459 47.5364C16.1099 50.4579 15.3579 54.1747 15.3579 54.1747L15.9858 53.8118C16.437 49.7115 15.5459 47.5364 15.5459 47.5364Z" fill="#00664F"/>
<path opacity="0.15" d="M15.5459 47.5364C16.1099 50.4579 15.3579 54.1747 15.3579 54.1747L15.9858 53.8118C16.437 49.7115 15.5459 47.5364 15.5459 47.5364Z" fill="black"/>
<path opacity="0.15" d="M15.6888 53.9638V53.9958L15.999 53.8172C16.4426 49.7169 15.5515 47.5417 15.5515 47.5417C16.0478 48.9517 16.0065 52.3658 15.6888 53.9638Z" fill="black"/>
<path d="M15.3658 54.1745C15.3658 54.1745 15.1082 51.52 14.1081 49.2414C13.1079 46.9628 11.8521 45.9382 11.8521 45.9382C11.8521 45.9382 13.3899 46.6376 14.6495 49.0929C15.3986 50.5392 15.9186 52.093 16.1911 53.6989L15.3658 54.1745Z" fill="#00664F"/>
<path opacity="0.2" d="M15.3658 54.1745C15.3658 54.1745 15.1082 51.52 14.1081 49.2414C13.1079 46.9628 11.8521 45.9382 11.8521 45.9382C11.8521 45.9382 13.3899 46.6376 14.6495 49.0929C15.3986 50.5392 15.9186 52.093 16.1911 53.6989L15.3658 54.1745Z" fill="black"/>
<path opacity="0.1" d="M15.7979 53.9245L16.1889 53.6989C15.9164 52.093 15.3964 50.5392 14.6473 49.0929C13.3877 46.6376 11.8499 45.9382 11.8499 45.9382C13.3501 46.9027 15.3467 50.0648 15.7979 53.9245Z" fill="black"/>
<path d="M15.3657 54.1745C15.3657 54.1745 14.9201 51.9956 12.2205 50.1814C12.2205 50.1814 14.7791 51.1665 15.9936 53.8117L15.3657 54.1745Z" fill="#00664F"/>
<path opacity="0.1" d="M15.6889 53.9642C15.6897 53.9717 15.6897 53.9792 15.6889 53.9867L15.9841 53.8175C14.7696 51.1724 12.2109 50.1873 12.2109 50.1873C13.4781 50.9073 15.0103 52.1443 15.6889 53.9642Z" fill="black"/>
<path d="M72.4481 60.2112C71.9875 62.5668 72.5947 65.5617 72.5947 65.5617L72.0871 65.2703C71.7224 61.9652 72.4481 60.2112 72.4481 60.2112Z" fill="#00664F"/>
<path opacity="0.15" d="M72.4481 60.2112C71.9875 62.5668 72.5947 65.5617 72.5947 65.5617L72.0871 65.2703C71.7224 61.9652 72.4481 60.2112 72.4481 60.2112Z" fill="black"/>
<path opacity="0.15" d="M72.3238 65.3868V65.4131L72.0737 65.2703C71.7165 61.9652 72.4347 60.2112 72.4347 60.2112C72.0437 61.3523 72.0719 64.1047 72.3238 65.3868Z" fill="black"/>
<path d="M72.5871 65.5619C72.742 64.1965 73.0829 62.8587 73.6004 61.5857C74.405 59.7451 75.4184 58.9236 75.4184 58.9236C75.4184 58.9236 74.1794 59.4876 73.1624 61.4653C72.5588 62.6314 72.1396 63.8839 71.9197 65.1783L72.5871 65.5619Z" fill="#00664F"/>
<path opacity="0.2" d="M72.5871 65.5619C72.742 64.1965 73.0829 62.8587 73.6004 61.5857C74.405 59.7451 75.4184 58.9236 75.4184 58.9236C75.4184 58.9236 74.1794 59.4876 73.1624 61.4653C72.5588 62.6314 72.1396 63.8839 71.9197 65.1783L72.5871 65.5619Z" fill="black"/>
<path opacity="0.1" d="M72.2377 65.3605L71.9219 65.1725C72.1418 63.8781 72.561 62.6255 73.1646 61.4595C74.1798 59.4817 75.4206 58.9177 75.4206 58.9177C74.2117 59.6998 72.6006 62.2491 72.2377 65.3605Z" fill="black"/>
<path d="M72.5869 65.5616C72.5869 65.5616 72.9404 63.8057 75.1193 62.343C75.1193 62.343 73.0513 63.1383 72.0793 65.2702L72.5869 65.5616Z" fill="#00664F"/>
<path opacity="0.1" d="M72.3238 65.3867C72.3248 65.393 72.3248 65.3993 72.3238 65.4055L72.0869 65.2702C73.0664 63.1383 75.1269 62.343 75.1269 62.343C74.106 62.9277 72.8728 63.9279 72.3238 65.3867Z" fill="black"/>
<path d="M78.718 69.504L78.985 72.7L71.0232 79.2217L59.604 79.8402L46.711 77.5711L38.6176 80.1429C38.6176 80.1429 29.6369 73.5159 29.3699 73.3411C29.1029 73.1662 16.7607 70.4478 16.7607 70.4478L10.145 65.5598L13.7922 54.825L78.718 69.504Z" fill="#455A64"/>
<path d="M46.7108 77.5712L45.6355 72.2696L40.097 71.4668L38.6174 80.143L46.7108 77.5712Z" fill="#263238"/>
<path d="M38.6173 80.1428L40.0969 71.4666L32.9341 59.5737L29.3696 73.3391L38.6173 80.1428Z" fill="#37474F"/>
<path d="M71.0229 79.2219L59.6038 79.8404L59.0398 65.5618L67.7198 67.5527L71.0229 79.2219Z" fill="#37474F"/>
<path d="M59.6039 79.8401L46.3518 75.8057L46.7109 77.571L59.6039 79.8401Z" fill="#37474F"/>
<path d="M78.7178 69.5039L71.0229 79.2216L78.9847 72.7018L78.7178 69.5039Z" fill="#37474F"/>
<path d="M16.7607 70.4478L20.4775 56.7163L24.9331 57.7371L26.8056 72.7019L16.7607 70.4478Z" fill="#37474F"/>
<path d="M16.7607 70.4478L20.4775 56.7162L13.7922 54.825L10.145 65.5616L16.7607 70.4478Z" fill="#263238"/>
<path d="M79.2876 69.4157C78.3025 67.6748 77.4734 67.0431 76.2157 66.0486C76.2157 66.0486 69.0115 63.9505 68.7953 63.8358C68.5791 63.7211 52.2175 60.6868 52.2175 60.6868L33.3103 51.4297H19.199C16.3339 52.1272 13.7 53.6443 13.2658 54.1858L13.1624 54.9378L14.7754 57.5585L19.8176 59.5156L25.3241 62.4503L31.5018 65.4583L39.7832 73.4501H45.6112L59.3145 76.0539L70.4178 74.8169C74.1138 73.1606 77.9284 71.4893 79.1748 70.1658L79.2876 69.4157Z" fill="#00664F"/>
<path opacity="0.2" d="M79.2876 69.4157C78.3025 67.6748 77.4734 67.0431 76.2157 66.0486C76.2157 66.0486 69.0115 63.9505 68.7953 63.8358C68.5791 63.7211 52.2175 60.6868 52.2175 60.6868L33.3103 51.4297H19.199C16.3339 52.1272 13.7 53.6443 13.2658 54.1858L13.1624 54.9378L14.7754 57.5585L19.8176 59.5156L25.3241 62.4503L31.5018 65.4583L39.7832 73.4501H45.6112L59.3145 76.0539L70.4178 74.8169C74.1138 73.1606 77.9284 71.4893 79.1748 70.1658L79.2876 69.4157Z" fill="black"/>
<path opacity="0.1" d="M19.729 59.4743L19.9226 58.7637L25.4273 61.6984L25.5457 62.5519L19.729 59.4743Z" fill="black"/>
<path opacity="0.2" d="M19.9228 58.7636L14.8788 56.8046L13.2658 54.1858L13.1624 54.9303L14.7735 57.551L19.7292 59.4742L19.9228 58.7636Z" fill="black"/>
<path opacity="0.1" d="M14.7735 57.551L14.8788 56.8046L13.2658 54.1858L13.1624 54.9303L14.7735 57.551Z" fill="black"/>
<path opacity="0.1" d="M31.6049 64.708L31.5015 65.4544L39.7829 73.4462L39.8881 72.7018L31.6049 64.708Z" fill="black"/>
<path opacity="0.2" d="M45.6187 73.4466L45.724 72.7021H39.8885L39.7832 73.4466H45.6187Z" fill="black"/>
<path opacity="0.2" d="M59.322 76.0503L59.4254 75.3039L70.5287 74.0669L70.4253 74.8133L59.322 76.0503Z" fill="black"/>
<path d="M19.1991 51.4297C16.334 52.1272 13.7001 53.6443 13.2659 54.1858L14.8789 56.8046L19.9229 58.7636L25.4276 61.6983L31.6053 64.7063L39.8867 72.6981H45.7147L59.4161 75.3019L70.5194 74.0649C74.2173 72.4105 78.03 70.7392 79.2783 69.4138C78.2932 67.6729 77.4641 67.0412 76.2064 66.0467C76.2064 66.0467 69.0022 63.9486 68.786 63.8339C68.5698 63.7192 52.2082 60.6849 52.2082 60.6849L33.3104 51.4297H19.1991Z" fill="#00664F"/>
<path d="M75.176 67.4247L70.946 70.4478L63.567 70.4703L54.4189 72.2695L44.0394 69.848L37.6587 64.475L46.4233 59.7374L61.8186 46.9478L63.8452 52.082L66.3926 52.1779L66.9623 56.2951L70.3312 59.8916L71.0231 63.8358L75.176 67.4247Z" fill="#455A64"/>
<path d="M61.8183 46.9478L63.8449 52.082L58.4775 49.7226L61.8183 46.9478Z" fill="#263238"/>
<path d="M70.9459 70.4478L71.023 63.8358L70.3311 59.8916L63.5669 70.4704L70.9459 70.4478Z" fill="#37474F"/>
<path d="M66.9619 56.2949V60.211L64.3129 64.253L63.5666 70.4701L61.7129 62.4331L65.7248 59.474L66.9619 56.2949Z" fill="#37474F"/>
<path d="M61.7131 62.4336L58.4043 68.7654L54.4187 72.2698L63.5668 70.4706L61.7131 62.4336Z" fill="#263238"/>
<path d="M58.4046 68.7652L52.979 65.949L44.0396 69.8481L54.419 72.2695L58.4046 68.7652Z" fill="#37474F"/>
<path d="M61.7133 62.4335L63.5669 58.1922L62.6401 56.1111L56.1052 59.2714L58.4045 68.7654L61.7133 62.4335Z" fill="#37474F"/>
<path d="M44.0394 69.8482L45.7239 60.1155L37.6587 64.4752L44.0394 69.8482Z" fill="#263238"/>
<path d="M52.979 65.9491L51.7889 59.7827L45.724 60.1155L44.0396 69.8482L52.979 65.9491Z" fill="#37474F"/>
<path d="M52.979 65.949L48.5083 70.8896L44.0396 69.8481L52.979 65.949Z" fill="#263238"/>
<path opacity="0.2" d="M35.0963 56.7163L41.2119 55.8684L41.3228 55.3514L33.3103 51.4297H19.199C18.4912 51.6047 17.7949 51.8232 17.1141 52.0839L15.5461 54.8268L28.3621 59.2712L35.0963 56.7163Z" fill="black"/>
<path d="M20.5412 39.0706L17.6724 53.9903L27.2096 57.0923L34.7334 55.6222L41.1836 59.7826L48.3164 56.2933L57.0283 53.6425L57.7295 48.386L54.8982 41.9151L52.3772 41.3436L51.1213 36.2544L20.5412 39.0706Z" fill="#455A64"/>
<path d="M41.2118 55.8685L35.7993 48.5459L35.3819 43.1597L33.1992 50.7624L34.7333 55.6222L41.2118 55.8685Z" fill="#37474F"/>
<path d="M28.5988 52.178L27.2094 57.0923L21.3476 55.2048L21.1389 48.2281L23.692 43.6428L30.554 47.1396L28.5988 52.178Z" fill="#37474F"/>
<path d="M17.6724 53.9905L21.3478 55.205L21.1391 48.2283L23.6921 43.9005L20.5412 39.0708L17.6724 53.9905Z" fill="#263238"/>
<path d="M34.7332 55.6222L33.1992 50.7624L35.3818 43.1597L30.554 47.1396L28.5988 52.178L27.2095 57.0924L34.7332 55.6222Z" fill="#263238"/>
<path d="M49.0551 45.0096L51.4164 43.263L52.3771 41.3436L51.1213 36.2544L48.5081 39.5782L49.0551 45.0096Z" fill="#37474F"/>
<path d="M45.3687 52.082L49.0553 45.0094L48.5083 39.5781L45.7165 41.3096L45.3687 52.082Z" fill="#263238"/>
<path d="M49.0554 45.0095L50.4429 47.5494L56.3216 45.1674L54.8985 41.915L49.0554 45.0095Z" fill="#37474F"/>
<path d="M52.9787 49.9314L50.4426 47.5494L56.3214 45.1675L52.9787 49.9314Z" fill="#263238"/>
<path d="M36.2938 50.8242C36.1058 53.2156 37.0458 56.1239 37.0458 56.1239L36.51 55.8908C35.7881 52.6478 36.2938 50.8242 36.2938 50.8242Z" fill="#00664F"/>
<path opacity="0.15" d="M36.2938 50.8242C36.1058 53.2156 37.0458 56.1239 37.0458 56.1239L36.51 55.8908C35.7881 52.6478 36.2938 50.8242 36.2938 50.8242Z" fill="black"/>
<path opacity="0.15" d="M36.7675 55.9792C36.7683 55.9879 36.7683 55.9967 36.7675 56.0055L36.5043 55.8908C35.7711 52.6478 36.2862 50.8242 36.2862 50.8242C36.0286 52.003 36.367 54.7346 36.7675 55.9792Z" fill="black"/>
<path d="M37.0477 56.1242C37.0492 54.7493 37.239 53.3812 37.6117 52.0578C38.2001 50.1383 39.1157 49.2058 39.1157 49.2058C39.1157 49.2058 37.95 49.907 37.168 51.9882C36.6995 53.2148 36.4242 54.5067 36.3521 55.8178L37.0477 56.1242Z" fill="#00664F"/>
<path opacity="0.5" d="M37.0477 56.1242C37.0492 54.7493 37.239 53.3812 37.6117 52.0578C38.2001 50.1383 39.1157 49.2058 39.1157 49.2058C39.1157 49.2058 37.95 49.907 37.168 51.9882C36.6995 53.2148 36.4242 54.5067 36.3521 55.8178L37.0477 56.1242Z" fill="white"/>
<path opacity="0.1" d="M36.6791 55.9625L36.3445 55.8178C36.4155 54.5069 36.6894 53.215 37.1566 51.9882C37.9387 49.907 39.1043 49.2058 39.1043 49.2058C37.9932 50.1157 36.6848 52.8361 36.6791 55.9625Z" fill="black"/>
<path d="M37.0478 56.1239C37.0478 56.1239 37.2 54.3379 39.1985 52.6365C39.1985 52.6365 37.2414 53.6611 36.512 55.8908L37.0478 56.1239Z" fill="#00664F"/>
<path opacity="0.1" d="M36.7675 55.9791C36.7675 55.9791 36.7675 55.9923 36.7675 55.9998L36.5156 55.8908C37.2451 53.6611 39.2021 52.6365 39.2021 52.6365C38.2584 53.334 37.1454 54.4638 36.7675 55.9791Z" fill="black"/>
<path d="M67.295 52.178C67.295 52.178 65.039 50.298 60.9782 49.2057L62.8582 47.9574L62.6515 47.2505C62.6515 47.2505 60.7508 46.1056 56.329 45.1675L52.9864 49.9314L45.3761 52.084L41.2194 55.8703L34.741 55.624L37.6681 64.4751L45.7258 62.063H52.3058L56.9475 62.612L65.1312 57.4288L67.5019 52.8924L67.295 52.178Z" fill="#00664F"/>
<path opacity="0.2" d="M67.295 52.178C67.295 52.178 65.039 50.298 60.9782 49.2057L62.8582 47.9574L62.6515 47.2505C62.6515 47.2505 60.7508 46.1056 56.329 45.1675L52.9864 49.9314L45.3761 52.084L41.2194 55.8703L34.741 55.624L35.1038 56.7182L37.6681 64.4751L45.7258 62.063H52.3058L56.9475 62.612L65.1312 57.4288L67.5019 52.8924L67.295 52.178Z" fill="black"/>
<path opacity="0.2" d="M62.6439 47.2505L62.8507 47.9574L60.9801 49.2057L60.0532 48.9782L62.6439 47.2505Z" fill="black"/>
<path d="M60.053 48.9782L62.6436 47.2505C62.6436 47.2505 60.743 46.1056 56.3212 45.1675L52.9786 49.9314L45.3758 52.084L41.2192 55.8703L35.1035 56.7182L37.6678 64.4751L45.5187 61.3562H52.0987L56.7461 61.8995L64.9278 56.7163L67.2985 52.178C67.2985 52.178 64.6947 50.0047 60.053 48.9782Z" fill="#00664F"/>
<path opacity="0.2" d="M64.9244 56.7163L65.1312 57.4213L56.9475 62.6045L56.7407 61.8995L64.9244 56.7163Z" fill="black"/>
<path opacity="0.2" d="M45.7164 62.0628L45.5096 61.356L37.6587 64.4749L45.7164 62.0628Z" fill="black"/>
<path d="M52.3322 35.9631C52.3322 35.9631 49.4238 34.2711 47.181 33.3555L38.9936 31.7256L25.5403 33.5097C25.5403 33.5097 21.7803 35.9123 19.9172 39.0087V39.772L22.7673 44.3329L30.5486 47.1397L39.1083 44.1129L45.6037 43.8121L50.6402 41.0504V40.2871L49.7134 39.0237L52.3322 36.7264V35.9631Z" fill="#00664F"/>
<path opacity="0.1" d="M52.3322 35.9631C52.3322 35.9631 49.4238 34.2711 47.181 33.3555L38.9936 31.7256L25.5403 33.5097C25.5403 33.5097 21.7803 35.9123 19.9172 39.0087V39.772L22.7673 44.3329L30.5486 47.1397L39.1083 44.1129L45.6037 43.8121L50.6402 41.0504V40.2871L49.7134 39.0237L52.3322 36.7264V35.9631Z" fill="black"/>
<path d="M19.9224 39.0087L22.7724 43.5696L30.5538 46.3764L39.1134 43.3496L45.6032 43.0451L50.6397 40.2871L49.3726 38.5594L52.3317 35.9631C52.3317 35.9631 49.4233 34.2711 47.1805 33.3555L38.9931 31.7256L25.5398 33.5097C25.5398 33.5097 21.793 35.9161 19.9224 39.0087Z" fill="#00664F"/>
<path opacity="0.2" d="M19.9224 39.0087L22.7724 43.5696L30.5538 46.3764L39.1134 43.3496L45.6032 43.0451L50.6397 40.2871L49.3726 38.5594L52.3317 35.9631C52.3317 35.9631 49.4233 34.2711 47.1805 33.3555L38.9931 31.7256L25.5398 33.5097C25.5398 33.5097 21.793 35.9161 19.9224 39.0087Z" fill="white"/>
<path opacity="0.2" d="M52.3375 35.9629L49.3784 38.5592L49.7187 39.0235L52.3375 36.7262V35.9629Z" fill="black"/>
<path opacity="0.2" d="M45.6035 43.8082V43.0449L39.1138 43.3495V44.1128L45.6035 43.8082Z" fill="black"/>
<path opacity="0.1" d="M39.1138 43.3496L30.5542 46.3764V47.1397L39.1138 44.1129V43.3496Z" fill="black"/>
<path opacity="0.3" d="M22.7724 44.3327V43.5694L19.9224 39.0085V39.7718L22.7724 44.3327Z" fill="black"/>
<path d="M55.5884 42.274L54.2912 41.3096L52.3774 41.3434L51.4167 43.2629L49.0554 45.0094L55.9268 43.5787L55.5884 42.274Z" fill="#00664F"/>
<path opacity="0.2" d="M55.5884 42.2739L55.9268 43.5786L49.0554 45.0093L53.3625 43.2064L55.5884 42.2739Z" fill="black"/>
<path d="M52.3774 41.3434L51.4167 43.2629L49.0554 45.0094L54.4191 43.1595L55.5884 42.274L54.2912 41.3096L52.3774 41.3434Z" fill="#00664F"/>
<path opacity="0.1" d="M52.3774 41.3434L51.4167 43.2629L49.0554 45.0094L54.4191 43.1595L55.5884 42.274L54.2912 41.3096L52.3774 41.3434Z" fill="white"/>
<path d="M72.5881 8.16502C73.6982 7.05493 73.6982 5.25512 72.5881 4.14503C71.478 3.03494 69.6782 3.03495 68.5681 4.14504C67.458 5.25513 67.458 7.05493 68.5681 8.16502C69.6782 9.27511 71.478 9.27511 72.5881 8.16502Z" fill="#F0997A"/>
<path d="M13.1566 2.11569L12.2881 2.61953C12.2881 2.58193 12.2881 2.54245 12.2881 2.50485V2.25293C12.2881 1.80173 11.9722 1.61937 11.5812 1.84497C11.4131 1.94752 11.2694 2.08545 11.1601 2.24917C11.0961 1.68517 10.6525 1.47273 10.1129 1.78481C9.8058 1.98502 9.55025 2.25484 9.36699 2.57235C9.18374 2.88985 9.07795 3.24611 9.05822 3.61217V3.98817C9.05438 4.13917 9.08526 4.28903 9.14846 4.42621L8.42278 4.84357C8.30893 4.91765 8.21418 5.01755 8.14623 5.13516C8.07828 5.25276 8.03905 5.38475 8.03174 5.52037C8.03174 5.77041 8.20658 5.87193 8.42278 5.74785L13.1566 3.01621C13.2702 2.9418 13.3647 2.84182 13.4326 2.72429C13.5005 2.60675 13.5399 2.47493 13.5477 2.33941C13.5477 2.09313 13.3709 1.99161 13.1566 2.11569Z" fill="#EBEBEB"/>
<path d="M19.62 2.24521L19.1387 2.43321V1.37101C19.1387 0.530647 18.4675 0.327607 17.74 0.748727C17.3567 0.998955 17.0378 1.33601 16.8091 1.73256C16.5805 2.1291 16.4485 2.57396 16.424 3.03105V3.18521C16.3217 3.15329 16.2135 3.14517 16.1076 3.16146C16.0017 3.17775 15.9009 3.21802 15.813 3.27921C15.5384 3.45975 15.3102 3.70242 15.1469 3.98756C14.9836 4.2727 14.8898 4.59229 14.873 4.92045V4.99189L14.2018 5.37917C14.0199 5.49741 13.8686 5.65696 13.7601 5.84483C13.6516 6.03269 13.5891 6.24354 13.5776 6.46017C13.5776 6.85873 13.8559 7.02417 14.2018 6.82113L19.62 3.68717C19.8015 3.5686 19.9526 3.40896 20.0611 3.22116C20.1695 3.03337 20.2322 2.82269 20.2441 2.60617C20.2404 2.20761 19.9602 2.04593 19.62 2.24521Z" fill="#EBEBEB"/>
<path d="M56.4209 10.9889C55.6719 10.2173 54.6913 9.71154 53.6284 9.54864C52.5654 9.38574 51.4784 9.57462 50.5327 10.0865C51.9634 9.5996 54.994 9.89852 56.4209 12.1432C57.8478 9.88724 60.8784 9.5996 62.309 10.0865C61.3634 9.57462 60.2763 9.38574 59.2134 9.54864C58.1504 9.71154 57.1698 10.2173 56.4209 10.9889Z" fill="#EBEBEB"/>
<path d="M61.9575 14.4444C61.4546 13.9282 60.7972 13.5899 60.0849 13.4807C59.3725 13.3714 58.644 13.4972 58.0095 13.839C58.9702 13.5119 61.0044 13.7112 61.9575 15.2208C62.9163 13.7168 64.9505 13.5119 65.9055 13.839C65.2711 13.4969 64.5425 13.371 63.8301 13.4802C63.1177 13.5894 62.4603 13.9279 61.9575 14.4444Z" fill="#EBEBEB"/>
<path opacity="0.1" d="M41.7927 41.4375C45.8036 41.4375 49.0552 39.5605 49.0552 37.2451C49.0552 34.9297 45.8036 33.0527 41.7927 33.0527C37.7818 33.0527 34.5303 34.9297 34.5303 37.2451C34.5303 39.5605 37.7818 41.4375 41.7927 41.4375Z" fill="black"/>
<path d="M46.8442 39.0405C46.8889 39.1903 46.8928 39.3493 46.8555 39.5011C46.8104 39.5951 46.5322 39.8997 45.9682 40.0125C45.4042 40.1253 44.624 40.0125 44.2912 39.9918C43.7155 40.0118 43.1413 40.0626 42.571 40.1441C42.0465 40.2155 41.6423 40.1008 41.443 39.911C41.411 39.8731 41.3874 39.8289 41.3738 39.7813C41.3602 39.7336 41.3569 39.6836 41.364 39.6346C41.365 39.5072 41.384 39.3807 41.4204 39.2586L46.8442 39.0405Z" fill="#263238"/>
<path d="M41.5107 38.7099C41.4994 38.755 41.49 38.7983 41.4825 38.8415C41.4316 39.0652 41.4151 39.2953 41.4336 39.524C41.4757 39.6003 41.5335 39.667 41.6031 39.7195C41.6728 39.772 41.7528 39.8091 41.8378 39.8285C42.2046 39.9397 42.5949 39.9475 42.9658 39.8511C43.4058 39.7864 43.8504 39.7587 44.295 39.7684C44.681 39.8158 45.0699 39.8353 45.4587 39.8266C45.7519 39.8142 46.0413 39.7552 46.316 39.6518C46.5453 39.554 46.7803 39.4281 46.8367 39.1912C46.9044 38.693 46.6957 38.4712 46.4607 38.3339C46.2257 38.1967 45.8967 38.2042 45.5207 38.1816C45.1955 38.1591 44.9567 38.1591 44.6691 38.1365C44.4189 38.1246 44.1704 38.09 43.9265 38.0331C43.7084 37.9654 43.4847 37.6872 43.3926 37.6759C43.3926 37.6759 41.9469 37.6646 41.8077 37.6759C41.6686 37.6872 41.6009 38.1854 41.5803 38.2926C41.5596 38.3997 41.5615 38.4674 41.5389 38.5482C41.5163 38.6291 41.5239 38.6554 41.5107 38.7099Z" fill="#37474F"/>
<path d="M45.9682 39.7605C46.0133 39.4014 46.0716 38.6325 45.4042 38.1737H45.3196C45.618 38.0873 45.9348 38.0873 46.2333 38.1737C46.7634 38.3147 46.9984 38.7378 46.8668 39.1946C46.88 39.189 46.7559 39.627 45.9682 39.7605Z" fill="#FAFAFA"/>
<path d="M44.0376 38.0593C44.1883 38.236 44.2877 38.4505 44.3252 38.6797C44.3534 38.8413 44.6467 38.8677 44.6185 38.7097C44.5738 38.4946 44.4876 38.2903 44.3647 38.1081C44.2644 38.0551 44.149 38.0378 44.0376 38.0593Z" fill="#FAFAFA"/>
<path d="M44.6375 38.1325C44.7981 38.2915 44.9035 38.4977 44.9382 38.721C44.9683 38.8751 45.2108 38.8733 45.1939 38.721C45.179 38.5084 45.0883 38.3083 44.9382 38.157C44.8938 38.1291 44.8432 38.1123 44.7908 38.108C44.7385 38.1038 44.6859 38.1122 44.6375 38.1325Z" fill="#FAFAFA"/>
<path d="M40.1664 34.5999C40.1969 34.8833 40.1575 35.1699 40.0518 35.4346C39.8544 35.8651 39.4878 36.0418 39.2772 36.1997C39.0467 36.3959 38.8318 36.6096 38.6342 36.8389C38.4571 37.0655 38.2553 37.2717 38.0326 37.4537C37.8749 37.5578 37.6928 37.619 37.5042 37.6312C37.3156 37.6434 37.1271 37.6062 36.9573 37.5233C36.7054 37.3954 36.6208 37.2995 36.6659 36.9029C36.711 36.5062 37.9932 36.4629 37.9932 36.4629L40.1664 34.5999Z" fill="#263238"/>
<path d="M36.9159 35.7281C36.8031 35.76 36.7617 35.9537 36.7166 36.3428C36.6828 36.6361 36.5192 37.0591 36.9347 37.2828C37.1197 37.3693 37.3254 37.4016 37.5281 37.376C37.7307 37.3504 37.9219 37.2679 38.0796 37.1381C38.3973 36.8128 38.6154 36.5214 39.0628 36.1285C39.4501 35.7864 39.8336 35.6905 40.048 34.9686C40.1871 34.5023 40.1194 34.3012 39.796 34.1414C39.3505 33.9214 38.5834 34.476 38.215 34.5456C37.9029 34.6001 37.0305 35.7018 36.9159 35.7281Z" fill="#37474F"/>
<path d="M38.2188 34.5438C38.24 34.5399 38.2607 34.5343 38.2809 34.5269C38.486 34.55 38.6816 34.6264 38.8481 34.7484C39.0146 34.8704 39.1464 35.0338 39.2303 35.2225C39.2829 35.3559 39.0874 35.4405 38.9821 35.3334C38.8907 35.1506 38.7568 34.9923 38.5916 34.8719C38.4264 34.7516 38.2347 34.6726 38.0327 34.6415C38.0881 34.5976 38.1512 34.5644 38.2188 34.5438Z" fill="#FAFAFA"/>
<path d="M37.9048 34.7429C38.0967 34.7752 38.2775 34.8547 38.431 34.9741C38.5846 35.0936 38.7061 35.2493 38.7847 35.4272C38.8354 35.5607 38.6399 35.6472 38.5346 35.5382C38.4586 35.3792 38.349 35.2387 38.2133 35.1264C38.0776 35.0141 37.9191 34.9326 37.7488 34.8877L37.9048 34.7429Z" fill="#FAFAFA"/>
<path d="M39.8018 35.4949C39.8018 35.4949 39.83 34.6169 38.5948 34.4026L38.5215 34.4364C38.6812 34.2269 38.913 34.0842 39.172 34.036C39.3439 33.9893 39.526 33.9961 39.6939 34.0556C39.8619 34.115 40.0077 34.2243 40.112 34.3688C40.3 34.647 40.0292 35.3388 39.8018 35.4949Z" fill="#FAFAFA"/>
<path d="M36.6058 30.906C36.5927 29.419 36.9405 28.838 36.9405 28.838C36.9405 28.838 36.7525 22.9724 36.8822 21.852C36.9718 21.03 37.1093 20.2139 37.2939 19.408C37.2939 19.408 43.3983 18.624 43.4979 20.7484C43.6634 24.6212 43.7931 26.5557 43.8156 29.5487C43.8156 30.4887 43.8307 32.1074 43.7724 33.9234C43.7235 35.4274 43.6934 37.8489 43.6934 37.8489C43.4186 38.1005 43.0744 38.2637 42.7057 38.3173C42.3369 38.3709 41.9606 38.3125 41.6254 38.1497C41.6254 38.1497 40.8998 33.491 40.8321 32.4157C40.787 31.7302 40.809 31.042 40.8979 30.3608L40.0801 26.3508L38.531 36.0196C38.0422 36.6964 36.8108 36.437 36.6698 36.1268C36.6604 36.123 36.6171 32.2239 36.6058 30.906Z" fill="#455A64"/>
<path d="M37.856 22.8066C37.856 22.8066 37.9782 23.6564 39.1889 24.0174L39.7529 26.3504C39.7529 26.3504 39.6626 28.9824 39.6626 28.9542L40.08 26.3467L39.6457 23.7748C39.6457 23.7748 38.4388 23.5286 37.856 22.8066Z" fill="#37474F"/>
<path d="M40.9035 11.2353L40.8095 13.042L38.8318 12.9348L38.8938 10.8066L40.9035 11.2353Z" fill="#9E6767"/>
<path d="M36.8801 20.876C36.8801 20.876 36.773 21.5359 36.8801 21.6863C36.9873 21.8367 37.7337 22.4195 39.8393 22.5247C41.9449 22.63 43.4113 22.1487 43.5372 21.8517C43.6632 21.5547 43.5259 20.9681 43.5259 20.9681L36.8801 20.876Z" fill="#00664F"/>
<path opacity="0.5" d="M36.8801 20.876C36.8801 20.876 36.773 21.5359 36.8801 21.6863C36.9873 21.8367 37.7337 22.4195 39.8393 22.5247C41.9449 22.63 43.4113 22.1487 43.5372 21.8517C43.6632 21.5547 43.5259 20.9681 43.5259 20.9681L36.8801 20.876Z" fill="black"/>
<path d="M38.0104 11.7429C37.5739 11.7073 37.1373 11.8112 36.7637 12.0396C36.39 12.268 36.0985 12.6091 35.9311 13.0138C35.736 13.6591 35.6834 14.339 35.7769 15.0066C35.8916 15.8883 36.0044 16.4843 36.2526 17.8135C36.4049 18.6237 36.6286 18.9415 37.2621 18.7535C37.8078 18.5855 38.3346 18.3612 38.8338 18.0842L38.0104 11.7429Z" fill="#00664F"/>
<path opacity="0.15" d="M38.0104 11.7429C37.5739 11.7073 37.1373 11.8112 36.7637 12.0396C36.39 12.268 36.0985 12.6091 35.9311 13.0138C35.736 13.6591 35.6834 14.339 35.7769 15.0066C35.8916 15.8883 36.0044 16.4843 36.2526 17.8135C36.4049 18.6237 36.6286 18.9415 37.2621 18.7535C37.8078 18.5855 38.3346 18.3612 38.8338 18.0842L38.0104 11.7429Z" fill="black"/>
<path d="M36.5063 12.8671C36.7187 12.3577 37.4294 11.6451 38.3261 11.7391C38.5724 11.7673 38.8657 11.8087 38.8657 11.8087C38.9446 12.1358 39.941 12.3389 40.7964 12.1358C41.054 12.2035 42.1294 12.4629 42.3437 12.5344C42.9584 12.7393 43.2423 13.2638 43.3702 15.4916C43.498 17.7194 44.047 21 43.3702 21.3497C42.2892 21.9137 40.4825 21.8855 39.2924 21.7765C38.2603 21.6843 37.4012 21.4005 36.9481 20.953C36.495 20.5056 36.7601 19.7085 36.824 18.588C36.871 17.7645 36.871 17.3171 36.5946 16.0331C36.2224 14.2583 36.2544 13.4669 36.5063 12.8671Z" fill="#00664F"/>
<path d="M42.2308 12.5078C43.2197 12.7654 43.5976 12.9816 43.9473 13.899C44.218 14.6059 45.4231 16.7623 45.7953 18.0858C45.9062 18.4806 45.9495 18.9261 45.4926 19.2627C45.0358 19.5992 43.7048 19.8643 43.7048 19.8643C43.6935 19.3679 43.6615 18.881 43.6202 18.3979L42.0692 15.7207C41.7276 15.1414 41.5697 14.4722 41.6161 13.8013C41.6518 13.3106 41.8041 12.8049 42.2308 12.5078Z" fill="#00664F"/>
<path opacity="0.15" d="M42.2308 12.5078C43.2197 12.7654 43.5976 12.9816 43.9473 13.899C44.218 14.6059 45.4231 16.7623 45.7953 18.0858C45.9062 18.4806 45.9495 18.9261 45.4926 19.2627C45.0358 19.5992 43.7048 19.8643 43.7048 19.8643C43.6935 19.3679 43.6615 18.881 43.6202 18.3979L42.0692 15.7207C41.7276 15.1414 41.5697 14.4722 41.6161 13.8013C41.6518 13.3106 41.8041 12.8049 42.2308 12.5078Z" fill="black"/>
<path opacity="0.15" d="M43.6201 18.3982C43.6352 18.5655 43.6464 18.7347 43.6577 18.902C43.8905 19.0624 44.175 19.1294 44.4548 19.09C44.2768 19.0359 44.1112 18.9468 43.9679 18.828C43.8246 18.7093 43.7064 18.5631 43.6201 18.3982Z" fill="black"/>
<path d="M40.8638 11.993C40.5198 12.181 39.6775 12.1453 39.3053 12.0381C38.9331 11.9309 38.8597 11.8144 38.8597 11.8144L38.7093 11.7937C38.6158 11.8517 38.5376 11.9313 38.4814 12.0259C38.4251 12.1205 38.3924 12.2272 38.386 12.337C38.3991 12.6717 38.8391 13.1003 39.5948 13.0138C40.3506 12.9273 40.8638 11.993 40.8638 11.993Z" fill="#00664F"/>
<path opacity="0.5" d="M40.8638 11.993C40.5198 12.181 39.6775 12.1453 39.3053 12.0381C38.9331 11.9309 38.8597 11.8144 38.8597 11.8144L38.7093 11.7937C38.6158 11.8517 38.5376 11.9313 38.4814 12.0259C38.4251 12.1205 38.3924 12.2272 38.386 12.337C38.3991 12.6717 38.8391 13.1003 39.5948 13.0138C40.3506 12.9273 40.8638 11.993 40.8638 11.993Z" fill="black"/>
<path d="M41.8811 12.416C41.8078 12.1979 41.2908 12.0588 40.8697 11.9949C40.4487 12.3601 39.9214 12.5802 39.3657 12.6228C38.6005 12.6548 38.4069 12.2261 38.7171 11.7956L38.8675 11.8163V11.6283C38.6701 11.579 38.4617 11.6009 38.279 11.6903C37.9343 11.8645 37.6355 12.1175 37.4068 12.4288C37.1782 12.7401 37.0261 13.1009 36.963 13.482C36.7619 14.5742 36.8521 16.114 37.903 16.802C38.5554 17.2232 40.3301 16.426 40.6929 15.5688C41.0558 14.7115 40.488 13.1793 41.193 12.416C41.4211 12.3813 41.6531 12.3813 41.8811 12.416Z" fill="#00664F"/>
<path opacity="0.3" d="M41.8811 12.416C41.8078 12.1979 41.2908 12.0588 40.8697 11.9949C40.4487 12.3601 39.9214 12.5802 39.3657 12.6228C38.6005 12.6548 38.4069 12.2261 38.7171 11.7956L38.8675 11.8163V11.6283C38.6701 11.579 38.4617 11.6009 38.279 11.6903C37.9343 11.8645 37.6355 12.1175 37.4068 12.4288C37.1782 12.7401 37.0261 13.1009 36.963 13.482C36.7619 14.5742 36.8521 16.114 37.903 16.802C38.5554 17.2232 40.3301 16.426 40.6929 15.5688C41.0558 14.7115 40.488 13.1793 41.193 12.416C41.4211 12.3813 41.6531 12.3813 41.8811 12.416Z" fill="black"/>
<path d="M41.3605 12.102C40.8811 12.0869 40.3979 12.3219 40.1855 13.1247C39.9731 13.9275 40.2475 14.9464 39.535 15.6345C38.7398 16.3997 38.3055 16.3132 38.0667 16.2699C37.9257 16.2455 37.2151 15.6195 37.0609 14.7659C36.9068 13.9124 37.1568 12.8859 37.17 12.8371C37.0747 13.0397 37.0065 13.254 36.9669 13.4744C36.7658 14.5667 36.856 16.1064 37.9069 16.7945C38.5593 17.2156 40.334 16.4185 40.6969 15.5612C41.0597 14.7039 40.4882 13.1792 41.1932 12.4159C41.4212 12.3812 41.6532 12.3812 41.8813 12.4159C41.838 12.2862 41.6162 12.1791 41.3605 12.102Z" fill="#00664F"/>
<path opacity="0.5" d="M41.3605 12.102C40.8811 12.0869 40.3979 12.3219 40.1855 13.1247C39.9731 13.9275 40.2475 14.9464 39.535 15.6345C38.7398 16.3997 38.3055 16.3132 38.0667 16.2699C37.9257 16.2455 37.2151 15.6195 37.0609 14.7659C36.9068 13.9124 37.1568 12.8859 37.17 12.8371C37.0747 13.0397 37.0065 13.254 36.9669 13.4744C36.7658 14.5667 36.856 16.1064 37.9069 16.7945C38.5593 17.2156 40.334 16.4185 40.6969 15.5612C41.0597 14.7039 40.4882 13.1792 41.1932 12.4159C41.4212 12.3812 41.6532 12.3812 41.8813 12.4159C41.838 12.2862 41.6162 12.1791 41.3605 12.102Z" fill="black"/>
<path d="M42.2327 8.7876C42.2327 8.7876 42.7045 9.50388 42.6519 9.57344C42.5993 9.643 42.2515 9.70692 42.2515 9.70692L42.2327 8.7876Z" fill="#874C4C"/>
<path d="M40.9242 6.80976C41.8792 7.01092 42.259 7.28916 42.3173 8.91912C42.3755 10.504 42.1763 11.0266 41.9676 11.239C41.8285 11.3838 41.0483 11.4101 40.6516 11.3011C40.159 11.1657 39.0461 10.7709 38.5234 9.9738C37.9105 9.0338 37.7489 7.76668 38.4069 7.24592C39.3318 6.51272 40.5369 6.72704 40.9242 6.80976Z" fill="#9E6767"/>
<path d="M41.9677 11.2388C41.853 11.3573 41.3078 11.3949 40.8979 11.346V11.1091C41.2392 11.2364 41.6059 11.2809 41.9677 11.2388Z" fill="#874C4C"/>
<path d="M42.4451 7.42101C42.2063 7.58858 41.9114 7.65605 41.6236 7.60901C41.6295 7.73659 41.5953 7.86282 41.5258 7.96997C41.4289 8.11698 41.2819 8.22386 41.1122 8.27077C41.2177 8.47486 41.2737 8.70091 41.2758 8.93065C41.2808 9.00248 41.2652 9.07426 41.2306 9.13745C41.22 9.16064 41.2029 9.18028 41.1814 9.19405C41.1599 9.20782 41.1349 9.21514 41.1094 9.21514C41.0838 9.21514 41.0589 9.20782 41.0374 9.19405C41.0159 9.18028 40.9988 9.16064 40.9881 9.13745C40.9344 9.01549 40.8669 8.90007 40.787 8.79341C40.684 8.66913 40.5387 8.58741 40.379 8.56405C39.7793 8.50013 39.706 9.28221 39.9447 9.60745C40.3376 10.1432 40.676 9.78417 40.676 9.78417C40.6941 10.0489 40.6579 10.3145 40.5697 10.5647C40.4814 10.8149 40.3429 11.0445 40.1628 11.2393C39.7416 11.3408 39.3007 11.3246 38.8882 11.1923C38.5404 10.5192 37.8654 10.1 37.5722 9.46833C36.9724 8.13353 37.3842 7.28001 37.8485 6.92657C37.9406 6.31181 38.4257 6.03545 38.9765 5.90761C39.8018 5.71961 40.5745 6.20841 41.3904 6.02605C41.525 5.99783 41.658 5.96269 41.789 5.92077C41.8397 5.89719 41.8975 5.89383 41.9507 5.91137C41.9802 5.93203 42.0031 5.96073 42.0168 5.99406C42.0305 6.02739 42.0343 6.06394 42.0278 6.09937C41.9877 6.25969 41.9006 6.40437 41.7777 6.51485C41.9562 6.53153 42.1362 6.52139 42.3116 6.48477C42.3737 6.47298 42.4375 6.47298 42.4996 6.48477C42.5664 6.51074 42.6231 6.55744 42.6613 6.61802C42.6996 6.6786 42.7173 6.74985 42.7121 6.82129C42.712 6.93437 42.6882 7.04617 42.6422 7.14947C42.5962 7.25277 42.5291 7.34528 42.4451 7.42101Z" fill="#263238"/>
<path d="M37.8389 7.13129L37.2749 6.79477C37.3245 6.73104 37.3956 6.68762 37.4749 6.6727C37.5543 6.65777 37.6363 6.67236 37.7057 6.71373C37.775 6.75509 37.8268 6.82038 37.8513 6.89728C37.8759 6.97419 37.8715 7.05742 37.8389 7.13129Z" fill="#263238"/>
</g>
<defs>
<clipPath id="clip0_274_730">
<rect width="91" height="89" fill="white"/>
</clipPath>
</defs>
</svg>
