<svg width="140" height="141" viewBox="0 0 140 141" fill="none" xmlns="http://www.w3.org/2000/svg">
<circle cx="70" cy="70.5" r="70" fill="white"/>
<path fill-rule="evenodd" clip-rule="evenodd" d="M23.4189 123.194C23.6616 122.543 23.9272 121.892 24.2157 121.243C25.94 117.363 28.311 113.828 31.3286 110.638C34.3461 107.448 37.7086 104.56 41.4159 101.974C45.1232 99.3872 49.0029 97.3611 53.0551 95.8955C48.3132 92.8779 44.5628 88.955 41.8039 84.1269C39.0449 79.2988 37.6655 74.0396 37.6655 68.3493V60.3312C37.6655 51.3647 40.8124 43.7345 47.1062 37.4407C53.4 31.1469 61.0301 28 69.9967 28C78.9632 28 86.5933 31.1469 92.8871 37.4407C99.1809 43.7345 102.328 51.3647 102.328 60.3312V68.3493C102.328 73.9534 100.948 79.2126 98.1894 84.1269C95.4305 89.0413 91.6801 92.9641 86.9382 95.8955C90.9041 97.2749 94.7839 99.301 98.5774 101.974C102.371 104.646 105.733 107.535 108.665 110.638C111.596 113.742 113.967 117.277 115.778 121.243C115.973 121.671 116.158 122.099 116.333 122.527C103.929 133.7 87.5084 140.5 69.4999 140.5C51.8529 140.5 35.731 133.97 23.4189 123.194Z" fill="#00664F"/>
</svg>
